<?xml version="1.0" encoding="utf-8" standalone="no"?>
<!DOCTYPE svg PUBLIC "-//W3C//DTD SVG 1.1//EN"
  "http://www.w3.org/Graphics/SVG/1.1/DTD/svg11.dtd">
<svg xmlns:xlink="http://www.w3.org/1999/xlink" width="999.749687pt" height="711.284748pt" viewBox="0 0 999.749687 711.284748" xmlns="http://www.w3.org/2000/svg" version="1.1">
 <metadata>
  <rdf:RDF xmlns:dc="http://purl.org/dc/elements/1.1/" xmlns:cc="http://creativecommons.org/ns#" xmlns:rdf="http://www.w3.org/1999/02/22-rdf-syntax-ns#">
   <cc:Work>
    <dc:type rdf:resource="http://purl.org/dc/dcmitype/StillImage"/>
    <dc:date>2026-05-07T22:43:36.286830</dc:date>
    <dc:format>image/svg+xml</dc:format>
    <dc:creator>
     <cc:Agent>
      <dc:title>Matplotlib v3.10.9, https://matplotlib.org/</dc:title>
     </cc:Agent>
    </dc:creator>
   </cc:Work>
  </rdf:RDF>
 </metadata>
 <defs>
  <style type="text/css">*{stroke-linejoin: round; stroke-linecap: butt}</style>
 </defs>
 <g id="figure_1">
  <g id="patch_1">
   <path d="M 0 711.284748 
L 999.749687 711.284748 
L 999.749687 0 
L 0 0 
z
" style="fill: #ffffff"/>
  </g>
  <g id="axes_1">
   <g id="patch_2">
    <path d="M 55.3575 316.035509 
L 978.6475 316.035509 
L 978.6475 38.343071 
L 55.3575 38.343071 
z
" style="fill: #ffffff"/>
   </g>
   <g id="matplotlib.axis_1">
    <g id="xtick_1">
     <g id="line2d_1">
      <path d="M 55.3575 316.035509 
L 55.3575 38.343071 
" clip-path="url(#pd0bf417fda)" style="fill: none; stroke: #b0b0b0; stroke-opacity: 0.3; stroke-width: 0.8; stroke-linecap: square"/>
     </g>
     <g id="line2d_2">
      <defs>
       <path id="mfb2feb4c78" d="M 0 0 
L 0 3.5 
" style="stroke: #000000; stroke-width: 0.8"/>
      </defs>
      <g>
       <use xlink:href="#mfb2feb4c78" x="55.3575" y="316.035509" style="stroke: #000000; stroke-width: 0.8"/>
      </g>
     </g>
     <g id="text_1">
      <!-- 2012 -->
      <g transform="translate(42.6325 330.633947) scale(0.1 -0.1)">
       <defs>
        <path id="DejaVuSans-32" d="M 1228 531 
L 3431 531 
L 3431 0 
L 469 0 
L 469 531 
Q 828 903 1448 1529 
Q 2069 2156 2228 2338 
Q 2531 2678 2651 2914 
Q 2772 3150 2772 3378 
Q 2772 3750 2511 3984 
Q 2250 4219 1831 4219 
Q 1534 4219 1204 4116 
Q 875 4013 500 3803 
L 500 4441 
Q 881 4594 1212 4672 
Q 1544 4750 1819 4750 
Q 2544 4750 2975 4387 
Q 3406 4025 3406 3419 
Q 3406 3131 3298 2873 
Q 3191 2616 2906 2266 
Q 2828 2175 2409 1742 
Q 1991 1309 1228 531 
z
" transform="scale(0.015625)"/>
        <path id="DejaVuSans-30" d="M 2034 4250 
Q 1547 4250 1301 3770 
Q 1056 3291 1056 2328 
Q 1056 1369 1301 889 
Q 1547 409 2034 409 
Q 2525 409 2770 889 
Q 3016 1369 3016 2328 
Q 3016 3291 2770 3770 
Q 2525 4250 2034 4250 
z
M 2034 4750 
Q 2819 4750 3233 4129 
Q 3647 3509 3647 2328 
Q 3647 1150 3233 529 
Q 2819 -91 2034 -91 
Q 1250 -91 836 529 
Q 422 1150 422 2328 
Q 422 3509 836 4129 
Q 1250 4750 2034 4750 
z
" transform="scale(0.015625)"/>
        <path id="DejaVuSans-31" d="M 794 531 
L 1825 531 
L 1825 4091 
L 703 3866 
L 703 4441 
L 1819 4666 
L 2450 4666 
L 2450 531 
L 3481 531 
L 3481 0 
L 794 0 
L 794 531 
z
" transform="scale(0.015625)"/>
       </defs>
       <use xlink:href="#DejaVuSans-32"/>
       <use xlink:href="#DejaVuSans-30" transform="translate(63.623047 0)"/>
       <use xlink:href="#DejaVuSans-31" transform="translate(127.246094 0)"/>
       <use xlink:href="#DejaVuSans-32" transform="translate(190.869141 0)"/>
      </g>
     </g>
    </g>
    <g id="xtick_2">
     <g id="line2d_3">
      <path d="M 187.256071 316.035509 
L 187.256071 38.343071 
" clip-path="url(#pd0bf417fda)" style="fill: none; stroke: #b0b0b0; stroke-opacity: 0.3; stroke-width: 0.8; stroke-linecap: square"/>
     </g>
     <g id="line2d_4">
      <g>
       <use xlink:href="#mfb2feb4c78" x="187.256071" y="316.035509" style="stroke: #000000; stroke-width: 0.8"/>
      </g>
     </g>
     <g id="text_2">
      <!-- 2014 -->
      <g transform="translate(174.531071 330.633947) scale(0.1 -0.1)">
       <defs>
        <path id="DejaVuSans-34" d="M 2419 4116 
L 825 1625 
L 2419 1625 
L 2419 4116 
z
M 2253 4666 
L 3047 4666 
L 3047 1625 
L 3713 1625 
L 3713 1100 
L 3047 1100 
L 3047 0 
L 2419 0 
L 2419 1100 
L 313 1100 
L 313 1709 
L 2253 4666 
z
" transform="scale(0.015625)"/>
       </defs>
       <use xlink:href="#DejaVuSans-32"/>
       <use xlink:href="#DejaVuSans-30" transform="translate(63.623047 0)"/>
       <use xlink:href="#DejaVuSans-31" transform="translate(127.246094 0)"/>
       <use xlink:href="#DejaVuSans-34" transform="translate(190.869141 0)"/>
      </g>
     </g>
    </g>
    <g id="xtick_3">
     <g id="line2d_5">
      <path d="M 319.154643 316.035509 
L 319.154643 38.343071 
" clip-path="url(#pd0bf417fda)" style="fill: none; stroke: #b0b0b0; stroke-opacity: 0.3; stroke-width: 0.8; stroke-linecap: square"/>
     </g>
     <g id="line2d_6">
      <g>
       <use xlink:href="#mfb2feb4c78" x="319.154643" y="316.035509" style="stroke: #000000; stroke-width: 0.8"/>
      </g>
     </g>
     <g id="text_3">
      <!-- 2016 -->
      <g transform="translate(306.429643 330.633947) scale(0.1 -0.1)">
       <defs>
        <path id="DejaVuSans-36" d="M 2113 2584 
Q 1688 2584 1439 2293 
Q 1191 2003 1191 1497 
Q 1191 994 1439 701 
Q 1688 409 2113 409 
Q 2538 409 2786 701 
Q 3034 994 3034 1497 
Q 3034 2003 2786 2293 
Q 2538 2584 2113 2584 
z
M 3366 4563 
L 3366 3988 
Q 3128 4100 2886 4159 
Q 2644 4219 2406 4219 
Q 1781 4219 1451 3797 
Q 1122 3375 1075 2522 
Q 1259 2794 1537 2939 
Q 1816 3084 2150 3084 
Q 2853 3084 3261 2657 
Q 3669 2231 3669 1497 
Q 3669 778 3244 343 
Q 2819 -91 2113 -91 
Q 1303 -91 875 529 
Q 447 1150 447 2328 
Q 447 3434 972 4092 
Q 1497 4750 2381 4750 
Q 2619 4750 2861 4703 
Q 3103 4656 3366 4563 
z
" transform="scale(0.015625)"/>
       </defs>
       <use xlink:href="#DejaVuSans-32"/>
       <use xlink:href="#DejaVuSans-30" transform="translate(63.623047 0)"/>
       <use xlink:href="#DejaVuSans-31" transform="translate(127.246094 0)"/>
       <use xlink:href="#DejaVuSans-36" transform="translate(190.869141 0)"/>
      </g>
     </g>
    </g>
    <g id="xtick_4">
     <g id="line2d_7">
      <path d="M 451.053214 316.035509 
L 451.053214 38.343071 
" clip-path="url(#pd0bf417fda)" style="fill: none; stroke: #b0b0b0; stroke-opacity: 0.3; stroke-width: 0.8; stroke-linecap: square"/>
     </g>
     <g id="line2d_8">
      <g>
       <use xlink:href="#mfb2feb4c78" x="451.053214" y="316.035509" style="stroke: #000000; stroke-width: 0.8"/>
      </g>
     </g>
     <g id="text_4">
      <!-- 2018 -->
      <g transform="translate(438.328214 330.633947) scale(0.1 -0.1)">
       <defs>
        <path id="DejaVuSans-38" d="M 2034 2216 
Q 1584 2216 1326 1975 
Q 1069 1734 1069 1313 
Q 1069 891 1326 650 
Q 1584 409 2034 409 
Q 2484 409 2743 651 
Q 3003 894 3003 1313 
Q 3003 1734 2745 1975 
Q 2488 2216 2034 2216 
z
M 1403 2484 
Q 997 2584 770 2862 
Q 544 3141 544 3541 
Q 544 4100 942 4425 
Q 1341 4750 2034 4750 
Q 2731 4750 3128 4425 
Q 3525 4100 3525 3541 
Q 3525 3141 3298 2862 
Q 3072 2584 2669 2484 
Q 3125 2378 3379 2068 
Q 3634 1759 3634 1313 
Q 3634 634 3220 271 
Q 2806 -91 2034 -91 
Q 1263 -91 848 271 
Q 434 634 434 1313 
Q 434 1759 690 2068 
Q 947 2378 1403 2484 
z
M 1172 3481 
Q 1172 3119 1398 2916 
Q 1625 2713 2034 2713 
Q 2441 2713 2670 2916 
Q 2900 3119 2900 3481 
Q 2900 3844 2670 4047 
Q 2441 4250 2034 4250 
Q 1625 4250 1398 4047 
Q 1172 3844 1172 3481 
z
" transform="scale(0.015625)"/>
       </defs>
       <use xlink:href="#DejaVuSans-32"/>
       <use xlink:href="#DejaVuSans-30" transform="translate(63.623047 0)"/>
       <use xlink:href="#DejaVuSans-31" transform="translate(127.246094 0)"/>
       <use xlink:href="#DejaVuSans-38" transform="translate(190.869141 0)"/>
      </g>
     </g>
    </g>
    <g id="xtick_5">
     <g id="line2d_9">
      <path d="M 582.951786 316.035509 
L 582.951786 38.343071 
" clip-path="url(#pd0bf417fda)" style="fill: none; stroke: #b0b0b0; stroke-opacity: 0.3; stroke-width: 0.8; stroke-linecap: square"/>
     </g>
     <g id="line2d_10">
      <g>
       <use xlink:href="#mfb2feb4c78" x="582.951786" y="316.035509" style="stroke: #000000; stroke-width: 0.8"/>
      </g>
     </g>
     <g id="text_5">
      <!-- 2020 -->
      <g transform="translate(570.226786 330.633947) scale(0.1 -0.1)">
       <use xlink:href="#DejaVuSans-32"/>
       <use xlink:href="#DejaVuSans-30" transform="translate(63.623047 0)"/>
       <use xlink:href="#DejaVuSans-32" transform="translate(127.246094 0)"/>
       <use xlink:href="#DejaVuSans-30" transform="translate(190.869141 0)"/>
      </g>
     </g>
    </g>
    <g id="xtick_6">
     <g id="line2d_11">
      <path d="M 714.850357 316.035509 
L 714.850357 38.343071 
" clip-path="url(#pd0bf417fda)" style="fill: none; stroke: #b0b0b0; stroke-opacity: 0.3; stroke-width: 0.8; stroke-linecap: square"/>
     </g>
     <g id="line2d_12">
      <g>
       <use xlink:href="#mfb2feb4c78" x="714.850357" y="316.035509" style="stroke: #000000; stroke-width: 0.8"/>
      </g>
     </g>
     <g id="text_6">
      <!-- 2022 -->
      <g transform="translate(702.125357 330.633947) scale(0.1 -0.1)">
       <use xlink:href="#DejaVuSans-32"/>
       <use xlink:href="#DejaVuSans-30" transform="translate(63.623047 0)"/>
       <use xlink:href="#DejaVuSans-32" transform="translate(127.246094 0)"/>
       <use xlink:href="#DejaVuSans-32" transform="translate(190.869141 0)"/>
      </g>
     </g>
    </g>
    <g id="xtick_7">
     <g id="line2d_13">
      <path d="M 846.748929 316.035509 
L 846.748929 38.343071 
" clip-path="url(#pd0bf417fda)" style="fill: none; stroke: #b0b0b0; stroke-opacity: 0.3; stroke-width: 0.8; stroke-linecap: square"/>
     </g>
     <g id="line2d_14">
      <g>
       <use xlink:href="#mfb2feb4c78" x="846.748929" y="316.035509" style="stroke: #000000; stroke-width: 0.8"/>
      </g>
     </g>
     <g id="text_7">
      <!-- 2024 -->
      <g transform="translate(834.023929 330.633947) scale(0.1 -0.1)">
       <use xlink:href="#DejaVuSans-32"/>
       <use xlink:href="#DejaVuSans-30" transform="translate(63.623047 0)"/>
       <use xlink:href="#DejaVuSans-32" transform="translate(127.246094 0)"/>
       <use xlink:href="#DejaVuSans-34" transform="translate(190.869141 0)"/>
      </g>
     </g>
    </g>
    <g id="xtick_8">
     <g id="line2d_15">
      <path d="M 978.6475 316.035509 
L 978.6475 38.343071 
" clip-path="url(#pd0bf417fda)" style="fill: none; stroke: #b0b0b0; stroke-opacity: 0.3; stroke-width: 0.8; stroke-linecap: square"/>
     </g>
     <g id="line2d_16">
      <g>
       <use xlink:href="#mfb2feb4c78" x="978.6475" y="316.035509" style="stroke: #000000; stroke-width: 0.8"/>
      </g>
     </g>
     <g id="text_8">
      <!-- 2026 -->
      <g transform="translate(965.9225 330.633947) scale(0.1 -0.1)">
       <use xlink:href="#DejaVuSans-32"/>
       <use xlink:href="#DejaVuSans-30" transform="translate(63.623047 0)"/>
       <use xlink:href="#DejaVuSans-32" transform="translate(127.246094 0)"/>
       <use xlink:href="#DejaVuSans-36" transform="translate(190.869141 0)"/>
      </g>
     </g>
    </g>
   </g>
   <g id="matplotlib.axis_2">
    <g id="ytick_1">
     <g id="line2d_17">
      <path d="M 55.3575 303.413126 
L 978.6475 303.413126 
" clip-path="url(#pd0bf417fda)" style="fill: none; stroke: #b0b0b0; stroke-opacity: 0.3; stroke-width: 0.8; stroke-linecap: square"/>
     </g>
     <g id="line2d_18">
      <defs>
       <path id="m2adcef93d3" d="M 0 0 
L -3.5 0 
" style="stroke: #000000; stroke-width: 0.8"/>
      </defs>
      <g>
       <use xlink:href="#m2adcef93d3" x="55.3575" y="303.413126" style="stroke: #000000; stroke-width: 0.8"/>
      </g>
     </g>
     <g id="text_9">
      <!-- 0 -->
      <g transform="translate(41.995 307.212344) scale(0.1 -0.1)">
       <use xlink:href="#DejaVuSans-30"/>
      </g>
     </g>
    </g>
    <g id="ytick_2">
     <g id="line2d_19">
      <path d="M 55.3575 271.674887 
L 978.6475 271.674887 
" clip-path="url(#pd0bf417fda)" style="fill: none; stroke: #b0b0b0; stroke-opacity: 0.3; stroke-width: 0.8; stroke-linecap: square"/>
     </g>
     <g id="line2d_20">
      <g>
       <use xlink:href="#m2adcef93d3" x="55.3575" y="271.674887" style="stroke: #000000; stroke-width: 0.8"/>
      </g>
     </g>
     <g id="text_10">
      <!-- 5 -->
      <g transform="translate(41.995 275.474106) scale(0.1 -0.1)">
       <defs>
        <path id="DejaVuSans-35" d="M 691 4666 
L 3169 4666 
L 3169 4134 
L 1269 4134 
L 1269 2991 
Q 1406 3038 1543 3061 
Q 1681 3084 1819 3084 
Q 2600 3084 3056 2656 
Q 3513 2228 3513 1497 
Q 3513 744 3044 326 
Q 2575 -91 1722 -91 
Q 1428 -91 1123 -41 
Q 819 9 494 109 
L 494 744 
Q 775 591 1075 516 
Q 1375 441 1709 441 
Q 2250 441 2565 725 
Q 2881 1009 2881 1497 
Q 2881 1984 2565 2268 
Q 2250 2553 1709 2553 
Q 1456 2553 1204 2497 
Q 953 2441 691 2322 
L 691 4666 
z
" transform="scale(0.015625)"/>
       </defs>
       <use xlink:href="#DejaVuSans-35"/>
      </g>
     </g>
    </g>
    <g id="ytick_3">
     <g id="line2d_21">
      <path d="M 55.3575 239.936648 
L 978.6475 239.936648 
" clip-path="url(#pd0bf417fda)" style="fill: none; stroke: #b0b0b0; stroke-opacity: 0.3; stroke-width: 0.8; stroke-linecap: square"/>
     </g>
     <g id="line2d_22">
      <g>
       <use xlink:href="#m2adcef93d3" x="55.3575" y="239.936648" style="stroke: #000000; stroke-width: 0.8"/>
      </g>
     </g>
     <g id="text_11">
      <!-- 10 -->
      <g transform="translate(35.6325 243.735867) scale(0.1 -0.1)">
       <use xlink:href="#DejaVuSans-31"/>
       <use xlink:href="#DejaVuSans-30" transform="translate(63.623047 0)"/>
      </g>
     </g>
    </g>
    <g id="ytick_4">
     <g id="line2d_23">
      <path d="M 55.3575 208.19841 
L 978.6475 208.19841 
" clip-path="url(#pd0bf417fda)" style="fill: none; stroke: #b0b0b0; stroke-opacity: 0.3; stroke-width: 0.8; stroke-linecap: square"/>
     </g>
     <g id="line2d_24">
      <g>
       <use xlink:href="#m2adcef93d3" x="55.3575" y="208.19841" style="stroke: #000000; stroke-width: 0.8"/>
      </g>
     </g>
     <g id="text_12">
      <!-- 15 -->
      <g transform="translate(35.6325 211.997628) scale(0.1 -0.1)">
       <use xlink:href="#DejaVuSans-31"/>
       <use xlink:href="#DejaVuSans-35" transform="translate(63.623047 0)"/>
      </g>
     </g>
    </g>
    <g id="ytick_5">
     <g id="line2d_25">
      <path d="M 55.3575 176.460171 
L 978.6475 176.460171 
" clip-path="url(#pd0bf417fda)" style="fill: none; stroke: #b0b0b0; stroke-opacity: 0.3; stroke-width: 0.8; stroke-linecap: square"/>
     </g>
     <g id="line2d_26">
      <g>
       <use xlink:href="#m2adcef93d3" x="55.3575" y="176.460171" style="stroke: #000000; stroke-width: 0.8"/>
      </g>
     </g>
     <g id="text_13">
      <!-- 20 -->
      <g transform="translate(35.6325 180.25939) scale(0.1 -0.1)">
       <use xlink:href="#DejaVuSans-32"/>
       <use xlink:href="#DejaVuSans-30" transform="translate(63.623047 0)"/>
      </g>
     </g>
    </g>
    <g id="ytick_6">
     <g id="line2d_27">
      <path d="M 55.3575 144.721932 
L 978.6475 144.721932 
" clip-path="url(#pd0bf417fda)" style="fill: none; stroke: #b0b0b0; stroke-opacity: 0.3; stroke-width: 0.8; stroke-linecap: square"/>
     </g>
     <g id="line2d_28">
      <g>
       <use xlink:href="#m2adcef93d3" x="55.3575" y="144.721932" style="stroke: #000000; stroke-width: 0.8"/>
      </g>
     </g>
     <g id="text_14">
      <!-- 25 -->
      <g transform="translate(35.6325 148.521151) scale(0.1 -0.1)">
       <use xlink:href="#DejaVuSans-32"/>
       <use xlink:href="#DejaVuSans-35" transform="translate(63.623047 0)"/>
      </g>
     </g>
    </g>
    <g id="ytick_7">
     <g id="line2d_29">
      <path d="M 55.3575 112.983693 
L 978.6475 112.983693 
" clip-path="url(#pd0bf417fda)" style="fill: none; stroke: #b0b0b0; stroke-opacity: 0.3; stroke-width: 0.8; stroke-linecap: square"/>
     </g>
     <g id="line2d_30">
      <g>
       <use xlink:href="#m2adcef93d3" x="55.3575" y="112.983693" style="stroke: #000000; stroke-width: 0.8"/>
      </g>
     </g>
     <g id="text_15">
      <!-- 30 -->
      <g transform="translate(35.6325 116.782912) scale(0.1 -0.1)">
       <defs>
        <path id="DejaVuSans-33" d="M 2597 2516 
Q 3050 2419 3304 2112 
Q 3559 1806 3559 1356 
Q 3559 666 3084 287 
Q 2609 -91 1734 -91 
Q 1441 -91 1130 -33 
Q 819 25 488 141 
L 488 750 
Q 750 597 1062 519 
Q 1375 441 1716 441 
Q 2309 441 2620 675 
Q 2931 909 2931 1356 
Q 2931 1769 2642 2001 
Q 2353 2234 1838 2234 
L 1294 2234 
L 1294 2753 
L 1863 2753 
Q 2328 2753 2575 2939 
Q 2822 3125 2822 3475 
Q 2822 3834 2567 4026 
Q 2313 4219 1838 4219 
Q 1578 4219 1281 4162 
Q 984 4106 628 3988 
L 628 4550 
Q 988 4650 1302 4700 
Q 1616 4750 1894 4750 
Q 2613 4750 3031 4423 
Q 3450 4097 3450 3541 
Q 3450 3153 3228 2886 
Q 3006 2619 2597 2516 
z
" transform="scale(0.015625)"/>
       </defs>
       <use xlink:href="#DejaVuSans-33"/>
       <use xlink:href="#DejaVuSans-30" transform="translate(63.623047 0)"/>
      </g>
     </g>
    </g>
    <g id="ytick_8">
     <g id="line2d_31">
      <path d="M 55.3575 81.245455 
L 978.6475 81.245455 
" clip-path="url(#pd0bf417fda)" style="fill: none; stroke: #b0b0b0; stroke-opacity: 0.3; stroke-width: 0.8; stroke-linecap: square"/>
     </g>
     <g id="line2d_32">
      <g>
       <use xlink:href="#m2adcef93d3" x="55.3575" y="81.245455" style="stroke: #000000; stroke-width: 0.8"/>
      </g>
     </g>
     <g id="text_16">
      <!-- 35 -->
      <g transform="translate(35.6325 85.044673) scale(0.1 -0.1)">
       <use xlink:href="#DejaVuSans-33"/>
       <use xlink:href="#DejaVuSans-35" transform="translate(63.623047 0)"/>
      </g>
     </g>
    </g>
    <g id="ytick_9">
     <g id="line2d_33">
      <path d="M 55.3575 49.507216 
L 978.6475 49.507216 
" clip-path="url(#pd0bf417fda)" style="fill: none; stroke: #b0b0b0; stroke-opacity: 0.3; stroke-width: 0.8; stroke-linecap: square"/>
     </g>
     <g id="line2d_34">
      <g>
       <use xlink:href="#m2adcef93d3" x="55.3575" y="49.507216" style="stroke: #000000; stroke-width: 0.8"/>
      </g>
     </g>
     <g id="text_17">
      <!-- 40 -->
      <g transform="translate(35.6325 53.306435) scale(0.1 -0.1)">
       <use xlink:href="#DejaVuSans-34"/>
       <use xlink:href="#DejaVuSans-30" transform="translate(63.623047 0)"/>
      </g>
     </g>
    </g>
    <g id="text_18">
     <!-- Monthly Traffic (Million) -->
     <g transform="translate(29.043125 258.18929) rotate(-90) scale(0.12 -0.12)">
      <defs>
       <path id="DejaVuSans-Bold-4d" d="M 588 4666 
L 2119 4666 
L 3181 2169 
L 4250 4666 
L 5778 4666 
L 5778 0 
L 4641 0 
L 4641 3413 
L 3566 897 
L 2803 897 
L 1728 3413 
L 1728 0 
L 588 0 
L 588 4666 
z
" transform="scale(0.015625)"/>
       <path id="DejaVuSans-Bold-6f" d="M 2203 2784 
Q 1831 2784 1636 2517 
Q 1441 2250 1441 1747 
Q 1441 1244 1636 976 
Q 1831 709 2203 709 
Q 2569 709 2762 976 
Q 2956 1244 2956 1747 
Q 2956 2250 2762 2517 
Q 2569 2784 2203 2784 
z
M 2203 3584 
Q 3106 3584 3614 3096 
Q 4122 2609 4122 1747 
Q 4122 884 3614 396 
Q 3106 -91 2203 -91 
Q 1297 -91 786 396 
Q 275 884 275 1747 
Q 275 2609 786 3096 
Q 1297 3584 2203 3584 
z
" transform="scale(0.015625)"/>
       <path id="DejaVuSans-Bold-6e" d="M 4056 2131 
L 4056 0 
L 2931 0 
L 2931 347 
L 2931 1631 
Q 2931 2084 2911 2256 
Q 2891 2428 2841 2509 
Q 2775 2619 2662 2680 
Q 2550 2741 2406 2741 
Q 2056 2741 1856 2470 
Q 1656 2200 1656 1722 
L 1656 0 
L 538 0 
L 538 3500 
L 1656 3500 
L 1656 2988 
Q 1909 3294 2193 3439 
Q 2478 3584 2822 3584 
Q 3428 3584 3742 3212 
Q 4056 2841 4056 2131 
z
" transform="scale(0.015625)"/>
       <path id="DejaVuSans-Bold-74" d="M 1759 4494 
L 1759 3500 
L 2913 3500 
L 2913 2700 
L 1759 2700 
L 1759 1216 
Q 1759 972 1856 886 
Q 1953 800 2241 800 
L 2816 800 
L 2816 0 
L 1856 0 
Q 1194 0 917 276 
Q 641 553 641 1216 
L 641 2700 
L 84 2700 
L 84 3500 
L 641 3500 
L 641 4494 
L 1759 4494 
z
" transform="scale(0.015625)"/>
       <path id="DejaVuSans-Bold-68" d="M 4056 2131 
L 4056 0 
L 2931 0 
L 2931 347 
L 2931 1625 
Q 2931 2084 2911 2256 
Q 2891 2428 2841 2509 
Q 2775 2619 2662 2680 
Q 2550 2741 2406 2741 
Q 2056 2741 1856 2470 
Q 1656 2200 1656 1722 
L 1656 0 
L 538 0 
L 538 4863 
L 1656 4863 
L 1656 2988 
Q 1909 3294 2193 3439 
Q 2478 3584 2822 3584 
Q 3428 3584 3742 3212 
Q 4056 2841 4056 2131 
z
" transform="scale(0.015625)"/>
       <path id="DejaVuSans-Bold-6c" d="M 538 4863 
L 1656 4863 
L 1656 0 
L 538 0 
L 538 4863 
z
" transform="scale(0.015625)"/>
       <path id="DejaVuSans-Bold-79" d="M 78 3500 
L 1197 3500 
L 2138 1125 
L 2938 3500 
L 4056 3500 
L 2584 -331 
Q 2363 -916 2067 -1148 
Q 1772 -1381 1288 -1381 
L 641 -1381 
L 641 -647 
L 991 -647 
Q 1275 -647 1404 -556 
Q 1534 -466 1606 -231 
L 1638 -134 
L 78 3500 
z
" transform="scale(0.015625)"/>
       <path id="DejaVuSans-Bold-20" transform="scale(0.015625)"/>
       <path id="DejaVuSans-Bold-54" d="M 31 4666 
L 4331 4666 
L 4331 3756 
L 2784 3756 
L 2784 0 
L 1581 0 
L 1581 3756 
L 31 3756 
L 31 4666 
z
" transform="scale(0.015625)"/>
       <path id="DejaVuSans-Bold-72" d="M 3138 2547 
Q 2991 2616 2845 2648 
Q 2700 2681 2553 2681 
Q 2122 2681 1889 2404 
Q 1656 2128 1656 1613 
L 1656 0 
L 538 0 
L 538 3500 
L 1656 3500 
L 1656 2925 
Q 1872 3269 2151 3426 
Q 2431 3584 2822 3584 
Q 2878 3584 2943 3579 
Q 3009 3575 3134 3559 
L 3138 2547 
z
" transform="scale(0.015625)"/>
       <path id="DejaVuSans-Bold-61" d="M 2106 1575 
Q 1756 1575 1579 1456 
Q 1403 1338 1403 1106 
Q 1403 894 1545 773 
Q 1688 653 1941 653 
Q 2256 653 2472 879 
Q 2688 1106 2688 1447 
L 2688 1575 
L 2106 1575 
z
M 3816 1997 
L 3816 0 
L 2688 0 
L 2688 519 
Q 2463 200 2181 54 
Q 1900 -91 1497 -91 
Q 953 -91 614 226 
Q 275 544 275 1050 
Q 275 1666 698 1953 
Q 1122 2241 2028 2241 
L 2688 2241 
L 2688 2328 
Q 2688 2594 2478 2717 
Q 2269 2841 1825 2841 
Q 1466 2841 1156 2769 
Q 847 2697 581 2553 
L 581 3406 
Q 941 3494 1303 3539 
Q 1666 3584 2028 3584 
Q 2975 3584 3395 3211 
Q 3816 2838 3816 1997 
z
" transform="scale(0.015625)"/>
       <path id="DejaVuSans-Bold-66" d="M 2841 4863 
L 2841 4128 
L 2222 4128 
Q 1984 4128 1890 4042 
Q 1797 3956 1797 3744 
L 1797 3500 
L 2753 3500 
L 2753 2700 
L 1797 2700 
L 1797 0 
L 678 0 
L 678 2700 
L 122 2700 
L 122 3500 
L 678 3500 
L 678 3744 
Q 678 4316 997 4589 
Q 1316 4863 1984 4863 
L 2841 4863 
z
" transform="scale(0.015625)"/>
       <path id="DejaVuSans-Bold-69" d="M 538 3500 
L 1656 3500 
L 1656 0 
L 538 0 
L 538 3500 
z
M 538 4863 
L 1656 4863 
L 1656 3950 
L 538 3950 
L 538 4863 
z
" transform="scale(0.015625)"/>
       <path id="DejaVuSans-Bold-63" d="M 3366 3391 
L 3366 2478 
Q 3138 2634 2908 2709 
Q 2678 2784 2431 2784 
Q 1963 2784 1702 2511 
Q 1441 2238 1441 1747 
Q 1441 1256 1702 982 
Q 1963 709 2431 709 
Q 2694 709 2930 787 
Q 3166 866 3366 1019 
L 3366 103 
Q 3103 6 2833 -42 
Q 2563 -91 2291 -91 
Q 1344 -91 809 395 
Q 275 881 275 1747 
Q 275 2613 809 3098 
Q 1344 3584 2291 3584 
Q 2566 3584 2833 3536 
Q 3100 3488 3366 3391 
z
" transform="scale(0.015625)"/>
       <path id="DejaVuSans-Bold-28" d="M 2413 -844 
L 1484 -844 
Q 1006 -72 778 623 
Q 550 1319 550 2003 
Q 550 2688 779 3389 
Q 1009 4091 1484 4856 
L 2413 4856 
Q 2013 4116 1813 3408 
Q 1613 2700 1613 2009 
Q 1613 1319 1811 609 
Q 2009 -100 2413 -844 
z
" transform="scale(0.015625)"/>
       <path id="DejaVuSans-Bold-29" d="M 513 -844 
Q 913 -100 1113 609 
Q 1313 1319 1313 2009 
Q 1313 2700 1113 3408 
Q 913 4116 513 4856 
L 1441 4856 
Q 1916 4091 2145 3389 
Q 2375 2688 2375 2003 
Q 2375 1319 2147 623 
Q 1919 -72 1441 -844 
L 513 -844 
z
" transform="scale(0.015625)"/>
      </defs>
      <use xlink:href="#DejaVuSans-Bold-4d"/>
      <use xlink:href="#DejaVuSans-Bold-6f" transform="translate(99.511719 0)"/>
      <use xlink:href="#DejaVuSans-Bold-6e" transform="translate(168.212891 0)"/>
      <use xlink:href="#DejaVuSans-Bold-74" transform="translate(239.404297 0)"/>
      <use xlink:href="#DejaVuSans-Bold-68" transform="translate(287.207031 0)"/>
      <use xlink:href="#DejaVuSans-Bold-6c" transform="translate(358.398438 0)"/>
      <use xlink:href="#DejaVuSans-Bold-79" transform="translate(392.675781 0)"/>
      <use xlink:href="#DejaVuSans-Bold-20" transform="translate(457.861328 0)"/>
      <use xlink:href="#DejaVuSans-Bold-54" transform="translate(492.675781 0)"/>
      <use xlink:href="#DejaVuSans-Bold-72" transform="translate(549.888672 0)"/>
      <use xlink:href="#DejaVuSans-Bold-61" transform="translate(599.205078 0)"/>
      <use xlink:href="#DejaVuSans-Bold-66" transform="translate(666.685547 0)"/>
      <use xlink:href="#DejaVuSans-Bold-66" transform="translate(710.191406 0)"/>
      <use xlink:href="#DejaVuSans-Bold-69" transform="translate(753.697266 0)"/>
      <use xlink:href="#DejaVuSans-Bold-63" transform="translate(787.974609 0)"/>
      <use xlink:href="#DejaVuSans-Bold-20" transform="translate(847.251953 0)"/>
      <use xlink:href="#DejaVuSans-Bold-28" transform="translate(882.066406 0)"/>
      <use xlink:href="#DejaVuSans-Bold-4d" transform="translate(927.769531 0)"/>
      <use xlink:href="#DejaVuSans-Bold-69" transform="translate(1027.28125 0)"/>
      <use xlink:href="#DejaVuSans-Bold-6c" transform="translate(1061.558594 0)"/>
      <use xlink:href="#DejaVuSans-Bold-6c" transform="translate(1095.835938 0)"/>
      <use xlink:href="#DejaVuSans-Bold-69" transform="translate(1130.113281 0)"/>
      <use xlink:href="#DejaVuSans-Bold-6f" transform="translate(1164.390625 0)"/>
      <use xlink:href="#DejaVuSans-Bold-6e" transform="translate(1233.091797 0)"/>
      <use xlink:href="#DejaVuSans-Bold-29" transform="translate(1304.283203 0)"/>
     </g>
    </g>
   </g>
   <g id="line2d_35">
    <path d="M 55.3575 303.413126 
L 121.306786 303.411697 
L 187.256071 303.405674 
L 253.205357 303.281564 
L 319.154643 300.874993 
L 385.103929 297.861429 
L 451.053214 292.370244 
L 517.0025 289.502122 
L 582.951786 270.066825 
L 648.901071 259.425133 
L 714.850357 241.956698 
L 780.799643 217.338806 
L 846.748929 184.223554 
L 912.698214 121.394041 
L 978.6475 50.965455 
" clip-path="url(#pd0bf417fda)" style="fill: none; stroke: #2e86ab; stroke-width: 2; stroke-linecap: square"/>
    <defs>
     <path id="mbc94d79ac4" d="M 0 3 
C 0.795609 3 1.55874 2.683901 2.12132 2.12132 
C 2.683901 1.55874 3 0.795609 3 0 
C 3 -0.795609 2.683901 -1.55874 2.12132 -2.12132 
C 1.55874 -2.683901 0.795609 -3 0 -3 
C -0.795609 -3 -1.55874 -2.683901 -2.12132 -2.12132 
C -2.683901 -1.55874 -3 -0.795609 -3 0 
C -3 0.795609 -2.683901 1.55874 -2.12132 2.12132 
C -1.55874 2.683901 -0.795609 3 0 3 
z
" style="stroke: #2e86ab"/>
    </defs>
    <g clip-path="url(#pd0bf417fda)">
     <use xlink:href="#mbc94d79ac4" x="55.3575" y="303.413126" style="fill: #2e86ab; stroke: #2e86ab"/>
     <use xlink:href="#mbc94d79ac4" x="121.306786" y="303.411697" style="fill: #2e86ab; stroke: #2e86ab"/>
     <use xlink:href="#mbc94d79ac4" x="187.256071" y="303.405674" style="fill: #2e86ab; stroke: #2e86ab"/>
     <use xlink:href="#mbc94d79ac4" x="253.205357" y="303.281564" style="fill: #2e86ab; stroke: #2e86ab"/>
     <use xlink:href="#mbc94d79ac4" x="319.154643" y="300.874993" style="fill: #2e86ab; stroke: #2e86ab"/>
     <use xlink:href="#mbc94d79ac4" x="385.103929" y="297.861429" style="fill: #2e86ab; stroke: #2e86ab"/>
     <use xlink:href="#mbc94d79ac4" x="451.053214" y="292.370244" style="fill: #2e86ab; stroke: #2e86ab"/>
     <use xlink:href="#mbc94d79ac4" x="517.0025" y="289.502122" style="fill: #2e86ab; stroke: #2e86ab"/>
     <use xlink:href="#mbc94d79ac4" x="582.951786" y="270.066825" style="fill: #2e86ab; stroke: #2e86ab"/>
     <use xlink:href="#mbc94d79ac4" x="648.901071" y="259.425133" style="fill: #2e86ab; stroke: #2e86ab"/>
     <use xlink:href="#mbc94d79ac4" x="714.850357" y="241.956698" style="fill: #2e86ab; stroke: #2e86ab"/>
     <use xlink:href="#mbc94d79ac4" x="780.799643" y="217.338806" style="fill: #2e86ab; stroke: #2e86ab"/>
     <use xlink:href="#mbc94d79ac4" x="846.748929" y="184.223554" style="fill: #2e86ab; stroke: #2e86ab"/>
     <use xlink:href="#mbc94d79ac4" x="912.698214" y="121.394041" style="fill: #2e86ab; stroke: #2e86ab"/>
     <use xlink:href="#mbc94d79ac4" x="978.6475" y="50.965455" style="fill: #2e86ab; stroke: #2e86ab"/>
    </g>
   </g>
   <g id="patch_3">
    <path d="M 55.3575 316.035509 
L 55.3575 38.343071 
" style="fill: none; stroke: #000000; stroke-width: 0.8; stroke-linejoin: miter; stroke-linecap: square"/>
   </g>
   <g id="patch_4">
    <path d="M 978.6475 316.035509 
L 978.6475 38.343071 
" style="fill: none; stroke: #000000; stroke-width: 0.8; stroke-linejoin: miter; stroke-linecap: square"/>
   </g>
   <g id="patch_5">
    <path d="M 55.3575 316.035509 
L 978.6475 316.035509 
" style="fill: none; stroke: #000000; stroke-width: 0.8; stroke-linejoin: miter; stroke-linecap: square"/>
   </g>
   <g id="patch_6">
    <path d="M 55.3575 38.343071 
L 978.6475 38.343071 
" style="fill: none; stroke: #000000; stroke-width: 0.8; stroke-linejoin: miter; stroke-linecap: square"/>
   </g>
   <g id="patch_7">
    <path d="M 319.154643 280.543979 
Q 319.154643 289.708898 319.154643 297.755782 
" style="fill: none; stroke: #808080; stroke-linecap: round"/>
    <path d="M 320.954643 294.155782 
L 319.154643 297.755782 
L 317.354643 294.155782 
" style="fill: none; stroke: #808080; stroke-linecap: round"/>
   </g>
   <g id="text_19">
    <g id="patch_8">
     <path d="M 298.225424 278.046606 
L 340.083862 278.046606 
Q 344.583862 278.046606 344.583862 273.546606 
L 344.583862 254.758262 
Q 344.583862 250.258262 340.083862 250.258262 
L 298.225424 250.258262 
Q 293.725424 250.258262 293.725424 254.758262 
L 293.725424 273.546606 
Q 293.725424 278.046606 298.225424 278.046606 
z
" style="fill: #ffffff; opacity: 0.8; stroke: #808080; stroke-linejoin: miter"/>
    </g>
    <!-- 2016 -->
    <g transform="translate(307.702143 261.596856) scale(0.09 -0.09)">
     <use xlink:href="#DejaVuSans-32"/>
     <use xlink:href="#DejaVuSans-30" transform="translate(63.623047 0)"/>
     <use xlink:href="#DejaVuSans-31" transform="translate(127.246094 0)"/>
     <use xlink:href="#DejaVuSans-36" transform="translate(190.869141 0)"/>
    </g>
    <!-- +1,829% -->
    <g transform="translate(298.225424 271.674887) scale(0.09 -0.09)">
     <defs>
      <path id="DejaVuSans-2b" d="M 2944 4013 
L 2944 2272 
L 4684 2272 
L 4684 1741 
L 2944 1741 
L 2944 0 
L 2419 0 
L 2419 1741 
L 678 1741 
L 678 2272 
L 2419 2272 
L 2419 4013 
L 2944 4013 
z
" transform="scale(0.015625)"/>
      <path id="DejaVuSans-2c" d="M 750 794 
L 1409 794 
L 1409 256 
L 897 -744 
L 494 -744 
L 750 256 
L 750 794 
z
" transform="scale(0.015625)"/>
      <path id="DejaVuSans-39" d="M 703 97 
L 703 672 
Q 941 559 1184 500 
Q 1428 441 1663 441 
Q 2288 441 2617 861 
Q 2947 1281 2994 2138 
Q 2813 1869 2534 1725 
Q 2256 1581 1919 1581 
Q 1219 1581 811 2004 
Q 403 2428 403 3163 
Q 403 3881 828 4315 
Q 1253 4750 1959 4750 
Q 2769 4750 3195 4129 
Q 3622 3509 3622 2328 
Q 3622 1225 3098 567 
Q 2575 -91 1691 -91 
Q 1453 -91 1209 -44 
Q 966 3 703 97 
z
M 1959 2075 
Q 2384 2075 2632 2365 
Q 2881 2656 2881 3163 
Q 2881 3666 2632 3958 
Q 2384 4250 1959 4250 
Q 1534 4250 1286 3958 
Q 1038 3666 1038 3163 
Q 1038 2656 1286 2365 
Q 1534 2075 1959 2075 
z
" transform="scale(0.015625)"/>
      <path id="DejaVuSans-25" d="M 4653 2053 
Q 4381 2053 4226 1822 
Q 4072 1591 4072 1178 
Q 4072 772 4226 539 
Q 4381 306 4653 306 
Q 4919 306 5073 539 
Q 5228 772 5228 1178 
Q 5228 1588 5073 1820 
Q 4919 2053 4653 2053 
z
M 4653 2450 
Q 5147 2450 5437 2106 
Q 5728 1763 5728 1178 
Q 5728 594 5436 251 
Q 5144 -91 4653 -91 
Q 4153 -91 3862 251 
Q 3572 594 3572 1178 
Q 3572 1766 3864 2108 
Q 4156 2450 4653 2450 
z
M 1428 4353 
Q 1159 4353 1004 4120 
Q 850 3888 850 3481 
Q 850 3069 1003 2837 
Q 1156 2606 1428 2606 
Q 1700 2606 1854 2837 
Q 2009 3069 2009 3481 
Q 2009 3884 1853 4118 
Q 1697 4353 1428 4353 
z
M 4250 4750 
L 4750 4750 
L 1831 -91 
L 1331 -91 
L 4250 4750 
z
M 1428 4750 
Q 1922 4750 2215 4408 
Q 2509 4066 2509 3481 
Q 2509 2891 2217 2550 
Q 1925 2209 1428 2209 
Q 931 2209 642 2551 
Q 353 2894 353 3481 
Q 353 4063 643 4406 
Q 934 4750 1428 4750 
z
" transform="scale(0.015625)"/>
     </defs>
     <use xlink:href="#DejaVuSans-2b"/>
     <use xlink:href="#DejaVuSans-31" transform="translate(83.789062 0)"/>
     <use xlink:href="#DejaVuSans-2c" transform="translate(147.412109 0)"/>
     <use xlink:href="#DejaVuSans-38" transform="translate(179.199219 0)"/>
     <use xlink:href="#DejaVuSans-32" transform="translate(242.822266 0)"/>
     <use xlink:href="#DejaVuSans-39" transform="translate(306.445312 0)"/>
     <use xlink:href="#DejaVuSans-25" transform="translate(370.068359 0)"/>
    </g>
   </g>
   <g id="patch_9">
    <path d="M 582.951786 248.807922 
Q 582.951786 258.437924 582.951786 266.949892 
" style="fill: none; stroke: #808080; stroke-linecap: round"/>
    <path d="M 584.751786 263.349892 
L 582.951786 266.949892 
L 581.151786 263.349892 
" style="fill: none; stroke: #808080; stroke-linecap: round"/>
   </g>
   <g id="text_20">
    <g id="patch_10">
     <path d="M 566.315848 246.308367 
L 599.587723 246.308367 
Q 604.087723 246.308367 604.087723 241.808367 
L 604.087723 223.020023 
Q 604.087723 218.520023 599.587723 218.520023 
L 566.315848 218.520023 
Q 561.815848 218.520023 561.815848 223.020023 
L 561.815848 241.808367 
Q 561.815848 246.308367 566.315848 246.308367 
z
" style="fill: #ffffff; opacity: 0.8; stroke: #808080; stroke-linejoin: miter"/>
    </g>
    <!-- 2020 -->
    <g transform="translate(571.499286 229.858617) scale(0.09 -0.09)">
     <use xlink:href="#DejaVuSans-32"/>
     <use xlink:href="#DejaVuSans-30" transform="translate(63.623047 0)"/>
     <use xlink:href="#DejaVuSans-32" transform="translate(127.246094 0)"/>
     <use xlink:href="#DejaVuSans-30" transform="translate(190.869141 0)"/>
    </g>
    <!-- +140% -->
    <g transform="translate(566.315848 239.936648) scale(0.09 -0.09)">
     <use xlink:href="#DejaVuSans-2b"/>
     <use xlink:href="#DejaVuSans-31" transform="translate(83.789062 0)"/>
     <use xlink:href="#DejaVuSans-34" transform="translate(147.412109 0)"/>
     <use xlink:href="#DejaVuSans-30" transform="translate(211.035156 0)"/>
     <use xlink:href="#DejaVuSans-25" transform="translate(274.658203 0)"/>
    </g>
   </g>
   <g id="patch_11">
    <path d="M 780.799643 198.029972 
Q 780.799643 206.682746 780.799643 214.217486 
" style="fill: none; stroke: #808080; stroke-linecap: round"/>
    <path d="M 782.599643 210.617486 
L 780.799643 214.217486 
L 778.999643 210.617486 
" style="fill: none; stroke: #808080; stroke-linecap: round"/>
   </g>
   <g id="text_21">
    <g id="patch_12">
     <path d="M 767.02683 195.527185 
L 794.572455 195.527185 
Q 799.072455 195.527185 799.072455 191.027185 
L 799.072455 172.238841 
Q 799.072455 167.738841 794.572455 167.738841 
L 767.02683 167.738841 
Q 762.52683 167.738841 762.52683 172.238841 
L 762.52683 191.027185 
Q 762.52683 195.527185 767.02683 195.527185 
z
" style="fill: #ffffff; opacity: 0.8; stroke: #808080; stroke-linejoin: miter"/>
    </g>
    <!-- 2023 -->
    <g transform="translate(769.347143 179.077435) scale(0.09 -0.09)">
     <use xlink:href="#DejaVuSans-32"/>
     <use xlink:href="#DejaVuSans-30" transform="translate(63.623047 0)"/>
     <use xlink:href="#DejaVuSans-32" transform="translate(127.246094 0)"/>
     <use xlink:href="#DejaVuSans-33" transform="translate(190.869141 0)"/>
    </g>
    <!-- +40% -->
    <g transform="translate(767.02683 189.155466) scale(0.09 -0.09)">
     <use xlink:href="#DejaVuSans-2b"/>
     <use xlink:href="#DejaVuSans-34" transform="translate(83.789062 0)"/>
     <use xlink:href="#DejaVuSans-30" transform="translate(147.412109 0)"/>
     <use xlink:href="#DejaVuSans-25" transform="translate(211.035156 0)"/>
    </g>
   </g>
   <g id="patch_13">
    <path d="M 912.698214 102.808436 
Q 912.698214 111.100847 912.698214 118.275224 
" style="fill: none; stroke: #808080; stroke-linecap: round"/>
    <path d="M 914.498214 114.675224 
L 912.698214 118.275224 
L 910.898214 114.675224 
" style="fill: none; stroke: #808080; stroke-linecap: round"/>
   </g>
   <g id="text_22">
    <g id="patch_14">
     <path d="M 898.925402 100.312469 
L 926.471027 100.312469 
Q 930.971027 100.312469 930.971027 95.812469 
L 930.971027 77.024125 
Q 930.971027 72.524125 926.471027 72.524125 
L 898.925402 72.524125 
Q 894.425402 72.524125 894.425402 77.024125 
L 894.425402 95.812469 
Q 894.425402 100.312469 898.925402 100.312469 
z
" style="fill: #ffffff; opacity: 0.8; stroke: #808080; stroke-linejoin: miter"/>
    </g>
    <!-- 2025 -->
    <g transform="translate(901.245714 83.862719) scale(0.09 -0.09)">
     <use xlink:href="#DejaVuSans-32"/>
     <use xlink:href="#DejaVuSans-30" transform="translate(63.623047 0)"/>
     <use xlink:href="#DejaVuSans-32" transform="translate(127.246094 0)"/>
     <use xlink:href="#DejaVuSans-35" transform="translate(190.869141 0)"/>
    </g>
    <!-- +53% -->
    <g transform="translate(898.925402 93.94075) scale(0.09 -0.09)">
     <use xlink:href="#DejaVuSans-2b"/>
     <use xlink:href="#DejaVuSans-35" transform="translate(83.789062 0)"/>
     <use xlink:href="#DejaVuSans-33" transform="translate(147.412109 0)"/>
     <use xlink:href="#DejaVuSans-25" transform="translate(211.035156 0)"/>
    </g>
   </g>
   <g id="patch_15">
    <path d="M 978.6475 32.994892 
Q 978.6475 40.982817 978.6475 47.852708 
" style="fill: none; stroke: #808080; stroke-linecap: round"/>
    <path d="M 980.4475 44.252708 
L 978.6475 47.852708 
L 976.8475 44.252708 
" style="fill: none; stroke: #808080; stroke-linecap: round"/>
   </g>
   <g id="text_23">
    <g id="patch_16">
     <path d="M 964.745312 30.488344 
L 992.549687 30.488344 
Q 997.049687 30.488344 997.049687 25.988344 
L 997.049687 7.2 
Q 997.049687 2.7 992.549687 2.7 
L 964.745312 2.7 
Q 960.245312 2.7 960.245312 7.2 
L 960.245312 25.988344 
Q 960.245312 30.488344 964.745312 30.488344 
z
" style="fill: #ffffff; opacity: 0.8; stroke: #808080; stroke-linejoin: miter"/>
    </g>
    <!-- 2026 -->
    <g transform="translate(967.195 14.038594) scale(0.09 -0.09)">
     <use xlink:href="#DejaVuSans-32"/>
     <use xlink:href="#DejaVuSans-30" transform="translate(63.623047 0)"/>
     <use xlink:href="#DejaVuSans-32" transform="translate(127.246094 0)"/>
     <use xlink:href="#DejaVuSans-36" transform="translate(190.869141 0)"/>
    </g>
    <!-- 39.8M -->
    <g transform="translate(964.745312 24.116625) scale(0.09 -0.09)">
     <defs>
      <path id="DejaVuSans-2e" d="M 684 794 
L 1344 794 
L 1344 0 
L 684 0 
L 684 794 
z
" transform="scale(0.015625)"/>
      <path id="DejaVuSans-4d" d="M 628 4666 
L 1569 4666 
L 2759 1491 
L 3956 4666 
L 4897 4666 
L 4897 0 
L 4281 0 
L 4281 4097 
L 3078 897 
L 2444 897 
L 1241 4097 
L 1241 0 
L 628 0 
L 628 4666 
z
" transform="scale(0.015625)"/>
     </defs>
     <use xlink:href="#DejaVuSans-33"/>
     <use xlink:href="#DejaVuSans-39" transform="translate(63.623047 0)"/>
     <use xlink:href="#DejaVuSans-2e" transform="translate(127.246094 0)"/>
     <use xlink:href="#DejaVuSans-38" transform="translate(159.033203 0)"/>
     <use xlink:href="#DejaVuSans-4d" transform="translate(222.65625 0)"/>
    </g>
   </g>
   <g id="text_24">
    <!-- Canva US Market Growth (2012-2026) -->
    <g transform="translate(367.621406 18.343071) scale(0.14 -0.14)">
     <defs>
      <path id="DejaVuSans-Bold-43" d="M 4288 256 
Q 3956 84 3597 -3 
Q 3238 -91 2847 -91 
Q 1681 -91 1000 561 
Q 319 1213 319 2328 
Q 319 3447 1000 4098 
Q 1681 4750 2847 4750 
Q 3238 4750 3597 4662 
Q 3956 4575 4288 4403 
L 4288 3438 
Q 3953 3666 3628 3772 
Q 3303 3878 2944 3878 
Q 2300 3878 1931 3465 
Q 1563 3053 1563 2328 
Q 1563 1606 1931 1193 
Q 2300 781 2944 781 
Q 3303 781 3628 887 
Q 3953 994 4288 1222 
L 4288 256 
z
" transform="scale(0.015625)"/>
      <path id="DejaVuSans-Bold-76" d="M 97 3500 
L 1216 3500 
L 2088 1081 
L 2956 3500 
L 4078 3500 
L 2700 0 
L 1472 0 
L 97 3500 
z
" transform="scale(0.015625)"/>
      <path id="DejaVuSans-Bold-55" d="M 588 4666 
L 1791 4666 
L 1791 1869 
Q 1791 1291 1980 1042 
Q 2169 794 2597 794 
Q 3028 794 3217 1042 
Q 3406 1291 3406 1869 
L 3406 4666 
L 4609 4666 
L 4609 1869 
Q 4609 878 4112 393 
Q 3616 -91 2597 -91 
Q 1581 -91 1084 393 
Q 588 878 588 1869 
L 588 4666 
z
" transform="scale(0.015625)"/>
      <path id="DejaVuSans-Bold-53" d="M 3834 4519 
L 3834 3531 
Q 3450 3703 3084 3790 
Q 2719 3878 2394 3878 
Q 1963 3878 1756 3759 
Q 1550 3641 1550 3391 
Q 1550 3203 1689 3098 
Q 1828 2994 2194 2919 
L 2706 2816 
Q 3484 2659 3812 2340 
Q 4141 2022 4141 1434 
Q 4141 663 3683 286 
Q 3225 -91 2284 -91 
Q 1841 -91 1394 -6 
Q 947 78 500 244 
L 500 1259 
Q 947 1022 1364 901 
Q 1781 781 2169 781 
Q 2563 781 2772 912 
Q 2981 1044 2981 1288 
Q 2981 1506 2839 1625 
Q 2697 1744 2272 1838 
L 1806 1941 
Q 1106 2091 782 2419 
Q 459 2747 459 3303 
Q 459 4000 909 4375 
Q 1359 4750 2203 4750 
Q 2588 4750 2994 4692 
Q 3400 4634 3834 4519 
z
" transform="scale(0.015625)"/>
      <path id="DejaVuSans-Bold-6b" d="M 538 4863 
L 1656 4863 
L 1656 2216 
L 2944 3500 
L 4244 3500 
L 2534 1894 
L 4378 0 
L 3022 0 
L 1656 1459 
L 1656 0 
L 538 0 
L 538 4863 
z
" transform="scale(0.015625)"/>
      <path id="DejaVuSans-Bold-65" d="M 4031 1759 
L 4031 1441 
L 1416 1441 
Q 1456 1047 1700 850 
Q 1944 653 2381 653 
Q 2734 653 3104 758 
Q 3475 863 3866 1075 
L 3866 213 
Q 3469 63 3072 -14 
Q 2675 -91 2278 -91 
Q 1328 -91 801 392 
Q 275 875 275 1747 
Q 275 2603 792 3093 
Q 1309 3584 2216 3584 
Q 3041 3584 3536 3087 
Q 4031 2591 4031 1759 
z
M 2881 2131 
Q 2881 2450 2695 2645 
Q 2509 2841 2209 2841 
Q 1884 2841 1681 2658 
Q 1478 2475 1428 2131 
L 2881 2131 
z
" transform="scale(0.015625)"/>
      <path id="DejaVuSans-Bold-47" d="M 4781 347 
Q 4331 128 3847 18 
Q 3363 -91 2847 -91 
Q 1681 -91 1000 561 
Q 319 1213 319 2328 
Q 319 3456 1012 4103 
Q 1706 4750 2913 4750 
Q 3378 4750 3804 4662 
Q 4231 4575 4609 4403 
L 4609 3438 
Q 4219 3659 3833 3768 
Q 3447 3878 3059 3878 
Q 2341 3878 1952 3476 
Q 1563 3075 1563 2328 
Q 1563 1588 1938 1184 
Q 2313 781 3003 781 
Q 3191 781 3352 804 
Q 3513 828 3641 878 
L 3641 1784 
L 2906 1784 
L 2906 2591 
L 4781 2591 
L 4781 347 
z
" transform="scale(0.015625)"/>
      <path id="DejaVuSans-Bold-77" d="M 225 3500 
L 1313 3500 
L 1900 1088 
L 2491 3500 
L 3425 3500 
L 4013 1113 
L 4603 3500 
L 5691 3500 
L 4769 0 
L 3547 0 
L 2956 2406 
L 2369 0 
L 1147 0 
L 225 3500 
z
" transform="scale(0.015625)"/>
      <path id="DejaVuSans-Bold-32" d="M 1844 884 
L 3897 884 
L 3897 0 
L 506 0 
L 506 884 
L 2209 2388 
Q 2438 2594 2547 2791 
Q 2656 2988 2656 3200 
Q 2656 3528 2436 3728 
Q 2216 3928 1850 3928 
Q 1569 3928 1234 3808 
Q 900 3688 519 3450 
L 519 4475 
Q 925 4609 1322 4679 
Q 1719 4750 2100 4750 
Q 2938 4750 3402 4381 
Q 3866 4013 3866 3353 
Q 3866 2972 3669 2642 
Q 3472 2313 2841 1759 
L 1844 884 
z
" transform="scale(0.015625)"/>
      <path id="DejaVuSans-Bold-30" d="M 2944 2338 
Q 2944 3213 2780 3570 
Q 2616 3928 2228 3928 
Q 1841 3928 1675 3570 
Q 1509 3213 1509 2338 
Q 1509 1453 1675 1090 
Q 1841 728 2228 728 
Q 2613 728 2778 1090 
Q 2944 1453 2944 2338 
z
M 4147 2328 
Q 4147 1169 3647 539 
Q 3147 -91 2228 -91 
Q 1306 -91 806 539 
Q 306 1169 306 2328 
Q 306 3491 806 4120 
Q 1306 4750 2228 4750 
Q 3147 4750 3647 4120 
Q 4147 3491 4147 2328 
z
" transform="scale(0.015625)"/>
      <path id="DejaVuSans-Bold-31" d="M 750 831 
L 1813 831 
L 1813 3847 
L 722 3622 
L 722 4441 
L 1806 4666 
L 2950 4666 
L 2950 831 
L 4013 831 
L 4013 0 
L 750 0 
L 750 831 
z
" transform="scale(0.015625)"/>
      <path id="DejaVuSans-Bold-2d" d="M 347 2297 
L 2309 2297 
L 2309 1388 
L 347 1388 
L 347 2297 
z
" transform="scale(0.015625)"/>
      <path id="DejaVuSans-Bold-36" d="M 2316 2303 
Q 2000 2303 1842 2098 
Q 1684 1894 1684 1484 
Q 1684 1075 1842 870 
Q 2000 666 2316 666 
Q 2634 666 2792 870 
Q 2950 1075 2950 1484 
Q 2950 1894 2792 2098 
Q 2634 2303 2316 2303 
z
M 3803 4544 
L 3803 3681 
Q 3506 3822 3243 3889 
Q 2981 3956 2731 3956 
Q 2194 3956 1894 3657 
Q 1594 3359 1544 2772 
Q 1750 2925 1990 3001 
Q 2231 3078 2516 3078 
Q 3231 3078 3670 2659 
Q 4109 2241 4109 1563 
Q 4109 813 3618 361 
Q 3128 -91 2303 -91 
Q 1394 -91 895 523 
Q 397 1138 397 2266 
Q 397 3422 980 4083 
Q 1563 4744 2578 4744 
Q 2900 4744 3203 4694 
Q 3506 4644 3803 4544 
z
" transform="scale(0.015625)"/>
     </defs>
     <use xlink:href="#DejaVuSans-Bold-43"/>
     <use xlink:href="#DejaVuSans-Bold-61" transform="translate(73.388672 0)"/>
     <use xlink:href="#DejaVuSans-Bold-6e" transform="translate(140.869141 0)"/>
     <use xlink:href="#DejaVuSans-Bold-76" transform="translate(212.060547 0)"/>
     <use xlink:href="#DejaVuSans-Bold-61" transform="translate(277.246094 0)"/>
     <use xlink:href="#DejaVuSans-Bold-20" transform="translate(344.726562 0)"/>
     <use xlink:href="#DejaVuSans-Bold-55" transform="translate(379.541016 0)"/>
     <use xlink:href="#DejaVuSans-Bold-53" transform="translate(460.742188 0)"/>
     <use xlink:href="#DejaVuSans-Bold-20" transform="translate(532.763672 0)"/>
     <use xlink:href="#DejaVuSans-Bold-4d" transform="translate(567.578125 0)"/>
     <use xlink:href="#DejaVuSans-Bold-61" transform="translate(667.089844 0)"/>
     <use xlink:href="#DejaVuSans-Bold-72" transform="translate(734.570312 0)"/>
     <use xlink:href="#DejaVuSans-Bold-6b" transform="translate(783.886719 0)"/>
     <use xlink:href="#DejaVuSans-Bold-65" transform="translate(847.765625 0)"/>
     <use xlink:href="#DejaVuSans-Bold-74" transform="translate(915.587891 0)"/>
     <use xlink:href="#DejaVuSans-Bold-20" transform="translate(963.390625 0)"/>
     <use xlink:href="#DejaVuSans-Bold-47" transform="translate(998.205078 0)"/>
     <use xlink:href="#DejaVuSans-Bold-72" transform="translate(1080.285156 0)"/>
     <use xlink:href="#DejaVuSans-Bold-6f" transform="translate(1129.601562 0)"/>
     <use xlink:href="#DejaVuSans-Bold-77" transform="translate(1198.302734 0)"/>
     <use xlink:href="#DejaVuSans-Bold-74" transform="translate(1290.685547 0)"/>
     <use xlink:href="#DejaVuSans-Bold-68" transform="translate(1338.488281 0)"/>
     <use xlink:href="#DejaVuSans-Bold-20" transform="translate(1409.679688 0)"/>
     <use xlink:href="#DejaVuSans-Bold-28" transform="translate(1444.494141 0)"/>
     <use xlink:href="#DejaVuSans-Bold-32" transform="translate(1490.197266 0)"/>
     <use xlink:href="#DejaVuSans-Bold-30" transform="translate(1559.777344 0)"/>
     <use xlink:href="#DejaVuSans-Bold-31" transform="translate(1629.357422 0)"/>
     <use xlink:href="#DejaVuSans-Bold-32" transform="translate(1698.9375 0)"/>
     <use xlink:href="#DejaVuSans-Bold-2d" transform="translate(1768.517578 0)"/>
     <use xlink:href="#DejaVuSans-Bold-32" transform="translate(1810.021484 0)"/>
     <use xlink:href="#DejaVuSans-Bold-30" transform="translate(1879.601562 0)"/>
     <use xlink:href="#DejaVuSans-Bold-32" transform="translate(1949.181641 0)"/>
     <use xlink:href="#DejaVuSans-Bold-36" transform="translate(2018.761719 0)"/>
     <use xlink:href="#DejaVuSans-Bold-29" transform="translate(2088.341797 0)"/>
    </g>
   </g>
  </g>
  <g id="axes_2">
   <g id="patch_17">
    <path d="M 55.3575 671.792873 
L 978.6475 671.792873 
L 978.6475 394.100435 
L 55.3575 394.100435 
z
" style="fill: #ffffff"/>
   </g>
   <g id="matplotlib.axis_3">
    <g id="xtick_9">
     <g id="line2d_36">
      <path d="M 55.3575 671.792873 
L 55.3575 394.100435 
" clip-path="url(#p4e308e54e8)" style="fill: none; stroke: #b0b0b0; stroke-opacity: 0.3; stroke-width: 0.8; stroke-linecap: square"/>
     </g>
     <g id="line2d_37">
      <g>
       <use xlink:href="#mfb2feb4c78" x="55.3575" y="671.792873" style="stroke: #000000; stroke-width: 0.8"/>
      </g>
     </g>
     <g id="text_25">
      <!-- 2012 -->
      <g transform="translate(42.6325 686.39131) scale(0.1 -0.1)">
       <use xlink:href="#DejaVuSans-32"/>
       <use xlink:href="#DejaVuSans-30" transform="translate(63.623047 0)"/>
       <use xlink:href="#DejaVuSans-31" transform="translate(127.246094 0)"/>
       <use xlink:href="#DejaVuSans-32" transform="translate(190.869141 0)"/>
      </g>
     </g>
    </g>
    <g id="xtick_10">
     <g id="line2d_38">
      <path d="M 187.256071 671.792873 
L 187.256071 394.100435 
" clip-path="url(#p4e308e54e8)" style="fill: none; stroke: #b0b0b0; stroke-opacity: 0.3; stroke-width: 0.8; stroke-linecap: square"/>
     </g>
     <g id="line2d_39">
      <g>
       <use xlink:href="#mfb2feb4c78" x="187.256071" y="671.792873" style="stroke: #000000; stroke-width: 0.8"/>
      </g>
     </g>
     <g id="text_26">
      <!-- 2014 -->
      <g transform="translate(174.531071 686.39131) scale(0.1 -0.1)">
       <use xlink:href="#DejaVuSans-32"/>
       <use xlink:href="#DejaVuSans-30" transform="translate(63.623047 0)"/>
       <use xlink:href="#DejaVuSans-31" transform="translate(127.246094 0)"/>
       <use xlink:href="#DejaVuSans-34" transform="translate(190.869141 0)"/>
      </g>
     </g>
    </g>
    <g id="xtick_11">
     <g id="line2d_40">
      <path d="M 319.154643 671.792873 
L 319.154643 394.100435 
" clip-path="url(#p4e308e54e8)" style="fill: none; stroke: #b0b0b0; stroke-opacity: 0.3; stroke-width: 0.8; stroke-linecap: square"/>
     </g>
     <g id="line2d_41">
      <g>
       <use xlink:href="#mfb2feb4c78" x="319.154643" y="671.792873" style="stroke: #000000; stroke-width: 0.8"/>
      </g>
     </g>
     <g id="text_27">
      <!-- 2016 -->
      <g transform="translate(306.429643 686.39131) scale(0.1 -0.1)">
       <use xlink:href="#DejaVuSans-32"/>
       <use xlink:href="#DejaVuSans-30" transform="translate(63.623047 0)"/>
       <use xlink:href="#DejaVuSans-31" transform="translate(127.246094 0)"/>
       <use xlink:href="#DejaVuSans-36" transform="translate(190.869141 0)"/>
      </g>
     </g>
    </g>
    <g id="xtick_12">
     <g id="line2d_42">
      <path d="M 451.053214 671.792873 
L 451.053214 394.100435 
" clip-path="url(#p4e308e54e8)" style="fill: none; stroke: #b0b0b0; stroke-opacity: 0.3; stroke-width: 0.8; stroke-linecap: square"/>
     </g>
     <g id="line2d_43">
      <g>
       <use xlink:href="#mfb2feb4c78" x="451.053214" y="671.792873" style="stroke: #000000; stroke-width: 0.8"/>
      </g>
     </g>
     <g id="text_28">
      <!-- 2018 -->
      <g transform="translate(438.328214 686.39131) scale(0.1 -0.1)">
       <use xlink:href="#DejaVuSans-32"/>
       <use xlink:href="#DejaVuSans-30" transform="translate(63.623047 0)"/>
       <use xlink:href="#DejaVuSans-31" transform="translate(127.246094 0)"/>
       <use xlink:href="#DejaVuSans-38" transform="translate(190.869141 0)"/>
      </g>
     </g>
    </g>
    <g id="xtick_13">
     <g id="line2d_44">
      <path d="M 582.951786 671.792873 
L 582.951786 394.100435 
" clip-path="url(#p4e308e54e8)" style="fill: none; stroke: #b0b0b0; stroke-opacity: 0.3; stroke-width: 0.8; stroke-linecap: square"/>
     </g>
     <g id="line2d_45">
      <g>
       <use xlink:href="#mfb2feb4c78" x="582.951786" y="671.792873" style="stroke: #000000; stroke-width: 0.8"/>
      </g>
     </g>
     <g id="text_29">
      <!-- 2020 -->
      <g transform="translate(570.226786 686.39131) scale(0.1 -0.1)">
       <use xlink:href="#DejaVuSans-32"/>
       <use xlink:href="#DejaVuSans-30" transform="translate(63.623047 0)"/>
       <use xlink:href="#DejaVuSans-32" transform="translate(127.246094 0)"/>
       <use xlink:href="#DejaVuSans-30" transform="translate(190.869141 0)"/>
      </g>
     </g>
    </g>
    <g id="xtick_14">
     <g id="line2d_46">
      <path d="M 714.850357 671.792873 
L 714.850357 394.100435 
" clip-path="url(#p4e308e54e8)" style="fill: none; stroke: #b0b0b0; stroke-opacity: 0.3; stroke-width: 0.8; stroke-linecap: square"/>
     </g>
     <g id="line2d_47">
      <g>
       <use xlink:href="#mfb2feb4c78" x="714.850357" y="671.792873" style="stroke: #000000; stroke-width: 0.8"/>
      </g>
     </g>
     <g id="text_30">
      <!-- 2022 -->
      <g transform="translate(702.125357 686.39131) scale(0.1 -0.1)">
       <use xlink:href="#DejaVuSans-32"/>
       <use xlink:href="#DejaVuSans-30" transform="translate(63.623047 0)"/>
       <use xlink:href="#DejaVuSans-32" transform="translate(127.246094 0)"/>
       <use xlink:href="#DejaVuSans-32" transform="translate(190.869141 0)"/>
      </g>
     </g>
    </g>
    <g id="xtick_15">
     <g id="line2d_48">
      <path d="M 846.748929 671.792873 
L 846.748929 394.100435 
" clip-path="url(#p4e308e54e8)" style="fill: none; stroke: #b0b0b0; stroke-opacity: 0.3; stroke-width: 0.8; stroke-linecap: square"/>
     </g>
     <g id="line2d_49">
      <g>
       <use xlink:href="#mfb2feb4c78" x="846.748929" y="671.792873" style="stroke: #000000; stroke-width: 0.8"/>
      </g>
     </g>
     <g id="text_31">
      <!-- 2024 -->
      <g transform="translate(834.023929 686.39131) scale(0.1 -0.1)">
       <use xlink:href="#DejaVuSans-32"/>
       <use xlink:href="#DejaVuSans-30" transform="translate(63.623047 0)"/>
       <use xlink:href="#DejaVuSans-32" transform="translate(127.246094 0)"/>
       <use xlink:href="#DejaVuSans-34" transform="translate(190.869141 0)"/>
      </g>
     </g>
    </g>
    <g id="xtick_16">
     <g id="line2d_50">
      <path d="M 978.6475 671.792873 
L 978.6475 394.100435 
" clip-path="url(#p4e308e54e8)" style="fill: none; stroke: #b0b0b0; stroke-opacity: 0.3; stroke-width: 0.8; stroke-linecap: square"/>
     </g>
     <g id="line2d_51">
      <g>
       <use xlink:href="#mfb2feb4c78" x="978.6475" y="671.792873" style="stroke: #000000; stroke-width: 0.8"/>
      </g>
     </g>
     <g id="text_32">
      <!-- 2026 -->
      <g transform="translate(965.9225 686.39131) scale(0.1 -0.1)">
       <use xlink:href="#DejaVuSans-32"/>
       <use xlink:href="#DejaVuSans-30" transform="translate(63.623047 0)"/>
       <use xlink:href="#DejaVuSans-32" transform="translate(127.246094 0)"/>
       <use xlink:href="#DejaVuSans-36" transform="translate(190.869141 0)"/>
      </g>
     </g>
    </g>
    <g id="text_33">
     <!-- Year -->
     <g transform="translate(502.128125 701.589123) scale(0.12 -0.12)">
      <defs>
       <path id="DejaVuSans-Bold-59" d="M -63 4666 
L 1253 4666 
L 2316 3003 
L 3378 4666 
L 4697 4666 
L 2919 1966 
L 2919 0 
L 1716 0 
L 1716 1966 
L -63 4666 
z
" transform="scale(0.015625)"/>
      </defs>
      <use xlink:href="#DejaVuSans-Bold-59"/>
      <use xlink:href="#DejaVuSans-Bold-65" transform="translate(63.287109 0)"/>
      <use xlink:href="#DejaVuSans-Bold-61" transform="translate(131.109375 0)"/>
      <use xlink:href="#DejaVuSans-Bold-72" transform="translate(198.589844 0)"/>
     </g>
    </g>
   </g>
   <g id="matplotlib.axis_4">
    <g id="ytick_10">
     <g id="line2d_52">
      <path d="M 55.3575 659.170489 
L 978.6475 659.170489 
" clip-path="url(#p4e308e54e8)" style="fill: none; stroke: #b0b0b0; stroke-opacity: 0.3; stroke-width: 0.8; stroke-linecap: square"/>
     </g>
     <g id="line2d_53">
      <g>
       <use xlink:href="#m2adcef93d3" x="55.3575" y="659.170489" style="stroke: #000000; stroke-width: 0.8"/>
      </g>
     </g>
     <g id="text_34">
      <!-- 0 -->
      <g transform="translate(41.995 662.969708) scale(0.1 -0.1)">
       <use xlink:href="#DejaVuSans-30"/>
      </g>
     </g>
    </g>
    <g id="ytick_11">
     <g id="line2d_54">
      <path d="M 55.3575 603.663708 
L 978.6475 603.663708 
" clip-path="url(#p4e308e54e8)" style="fill: none; stroke: #b0b0b0; stroke-opacity: 0.3; stroke-width: 0.8; stroke-linecap: square"/>
     </g>
     <g id="line2d_55">
      <g>
       <use xlink:href="#m2adcef93d3" x="55.3575" y="603.663708" style="stroke: #000000; stroke-width: 0.8"/>
      </g>
     </g>
     <g id="text_35">
      <!-- 1000 -->
      <g transform="translate(22.9075 607.462927) scale(0.1 -0.1)">
       <use xlink:href="#DejaVuSans-31"/>
       <use xlink:href="#DejaVuSans-30" transform="translate(63.623047 0)"/>
       <use xlink:href="#DejaVuSans-30" transform="translate(127.246094 0)"/>
       <use xlink:href="#DejaVuSans-30" transform="translate(190.869141 0)"/>
      </g>
     </g>
    </g>
    <g id="ytick_12">
     <g id="line2d_56">
      <path d="M 55.3575 548.156927 
L 978.6475 548.156927 
" clip-path="url(#p4e308e54e8)" style="fill: none; stroke: #b0b0b0; stroke-opacity: 0.3; stroke-width: 0.8; stroke-linecap: square"/>
     </g>
     <g id="line2d_57">
      <g>
       <use xlink:href="#m2adcef93d3" x="55.3575" y="548.156927" style="stroke: #000000; stroke-width: 0.8"/>
      </g>
     </g>
     <g id="text_36">
      <!-- 2000 -->
      <g transform="translate(22.9075 551.956146) scale(0.1 -0.1)">
       <use xlink:href="#DejaVuSans-32"/>
       <use xlink:href="#DejaVuSans-30" transform="translate(63.623047 0)"/>
       <use xlink:href="#DejaVuSans-30" transform="translate(127.246094 0)"/>
       <use xlink:href="#DejaVuSans-30" transform="translate(190.869141 0)"/>
      </g>
     </g>
    </g>
    <g id="ytick_13">
     <g id="line2d_58">
      <path d="M 55.3575 492.650146 
L 978.6475 492.650146 
" clip-path="url(#p4e308e54e8)" style="fill: none; stroke: #b0b0b0; stroke-opacity: 0.3; stroke-width: 0.8; stroke-linecap: square"/>
     </g>
     <g id="line2d_59">
      <g>
       <use xlink:href="#m2adcef93d3" x="55.3575" y="492.650146" style="stroke: #000000; stroke-width: 0.8"/>
      </g>
     </g>
     <g id="text_37">
      <!-- 3000 -->
      <g transform="translate(22.9075 496.449365) scale(0.1 -0.1)">
       <use xlink:href="#DejaVuSans-33"/>
       <use xlink:href="#DejaVuSans-30" transform="translate(63.623047 0)"/>
       <use xlink:href="#DejaVuSans-30" transform="translate(127.246094 0)"/>
       <use xlink:href="#DejaVuSans-30" transform="translate(190.869141 0)"/>
      </g>
     </g>
    </g>
    <g id="ytick_14">
     <g id="line2d_60">
      <path d="M 55.3575 437.143365 
L 978.6475 437.143365 
" clip-path="url(#p4e308e54e8)" style="fill: none; stroke: #b0b0b0; stroke-opacity: 0.3; stroke-width: 0.8; stroke-linecap: square"/>
     </g>
     <g id="line2d_61">
      <g>
       <use xlink:href="#m2adcef93d3" x="55.3575" y="437.143365" style="stroke: #000000; stroke-width: 0.8"/>
      </g>
     </g>
     <g id="text_38">
      <!-- 4000 -->
      <g transform="translate(22.9075 440.942584) scale(0.1 -0.1)">
       <use xlink:href="#DejaVuSans-34"/>
       <use xlink:href="#DejaVuSans-30" transform="translate(63.623047 0)"/>
       <use xlink:href="#DejaVuSans-30" transform="translate(127.246094 0)"/>
       <use xlink:href="#DejaVuSans-30" transform="translate(190.869141 0)"/>
      </g>
     </g>
    </g>
    <g id="text_39">
     <!-- Keywords (Thousand) -->
     <g transform="translate(16.318125 606.478529) rotate(-90) scale(0.12 -0.12)">
      <defs>
       <path id="DejaVuSans-Bold-4b" d="M 588 4666 
L 1791 4666 
L 1791 2963 
L 3525 4666 
L 4922 4666 
L 2675 2456 
L 5153 0 
L 3647 0 
L 1791 1838 
L 1791 0 
L 588 0 
L 588 4666 
z
" transform="scale(0.015625)"/>
       <path id="DejaVuSans-Bold-64" d="M 2919 2988 
L 2919 4863 
L 4044 4863 
L 4044 0 
L 2919 0 
L 2919 506 
Q 2688 197 2409 53 
Q 2131 -91 1766 -91 
Q 1119 -91 703 423 
Q 288 938 288 1747 
Q 288 2556 703 3070 
Q 1119 3584 1766 3584 
Q 2128 3584 2408 3439 
Q 2688 3294 2919 2988 
z
M 2181 722 
Q 2541 722 2730 984 
Q 2919 1247 2919 1747 
Q 2919 2247 2730 2509 
Q 2541 2772 2181 2772 
Q 1825 2772 1636 2509 
Q 1447 2247 1447 1747 
Q 1447 1247 1636 984 
Q 1825 722 2181 722 
z
" transform="scale(0.015625)"/>
       <path id="DejaVuSans-Bold-73" d="M 3272 3391 
L 3272 2541 
Q 2913 2691 2578 2766 
Q 2244 2841 1947 2841 
Q 1628 2841 1473 2761 
Q 1319 2681 1319 2516 
Q 1319 2381 1436 2309 
Q 1553 2238 1856 2203 
L 2053 2175 
Q 2913 2066 3209 1816 
Q 3506 1566 3506 1031 
Q 3506 472 3093 190 
Q 2681 -91 1863 -91 
Q 1516 -91 1145 -36 
Q 775 19 384 128 
L 384 978 
Q 719 816 1070 734 
Q 1422 653 1784 653 
Q 2113 653 2278 743 
Q 2444 834 2444 1013 
Q 2444 1163 2330 1236 
Q 2216 1309 1875 1350 
L 1678 1375 
Q 931 1469 631 1722 
Q 331 1975 331 2491 
Q 331 3047 712 3315 
Q 1094 3584 1881 3584 
Q 2191 3584 2531 3537 
Q 2872 3491 3272 3391 
z
" transform="scale(0.015625)"/>
       <path id="DejaVuSans-Bold-75" d="M 500 1363 
L 500 3500 
L 1625 3500 
L 1625 3150 
Q 1625 2866 1622 2436 
Q 1619 2006 1619 1863 
Q 1619 1441 1641 1255 
Q 1663 1069 1716 984 
Q 1784 875 1895 815 
Q 2006 756 2150 756 
Q 2500 756 2700 1025 
Q 2900 1294 2900 1772 
L 2900 3500 
L 4019 3500 
L 4019 0 
L 2900 0 
L 2900 506 
Q 2647 200 2364 54 
Q 2081 -91 1741 -91 
Q 1134 -91 817 281 
Q 500 653 500 1363 
z
" transform="scale(0.015625)"/>
      </defs>
      <use xlink:href="#DejaVuSans-Bold-4b"/>
      <use xlink:href="#DejaVuSans-Bold-65" transform="translate(75.740234 0)"/>
      <use xlink:href="#DejaVuSans-Bold-79" transform="translate(143.5625 0)"/>
      <use xlink:href="#DejaVuSans-Bold-77" transform="translate(208.748047 0)"/>
      <use xlink:href="#DejaVuSans-Bold-6f" transform="translate(301.130859 0)"/>
      <use xlink:href="#DejaVuSans-Bold-72" transform="translate(369.832031 0)"/>
      <use xlink:href="#DejaVuSans-Bold-64" transform="translate(419.148438 0)"/>
      <use xlink:href="#DejaVuSans-Bold-73" transform="translate(490.730469 0)"/>
      <use xlink:href="#DejaVuSans-Bold-20" transform="translate(550.251953 0)"/>
      <use xlink:href="#DejaVuSans-Bold-28" transform="translate(585.066406 0)"/>
      <use xlink:href="#DejaVuSans-Bold-54" transform="translate(630.769531 0)"/>
      <use xlink:href="#DejaVuSans-Bold-68" transform="translate(698.982422 0)"/>
      <use xlink:href="#DejaVuSans-Bold-6f" transform="translate(770.173828 0)"/>
      <use xlink:href="#DejaVuSans-Bold-75" transform="translate(838.875 0)"/>
      <use xlink:href="#DejaVuSans-Bold-73" transform="translate(910.066406 0)"/>
      <use xlink:href="#DejaVuSans-Bold-61" transform="translate(969.587891 0)"/>
      <use xlink:href="#DejaVuSans-Bold-6e" transform="translate(1037.068359 0)"/>
      <use xlink:href="#DejaVuSans-Bold-64" transform="translate(1108.259766 0)"/>
      <use xlink:href="#DejaVuSans-Bold-29" transform="translate(1179.841797 0)"/>
     </g>
    </g>
   </g>
   <g id="line2d_62">
    <path d="M 55.3575 659.170489 
L 121.306786 659.170434 
L 187.256071 659.161442 
L 253.205357 659.064416 
L 319.154643 651.910369 
L 385.103929 632.522572 
L 451.053214 618.486628 
L 517.0025 618.105629 
L 582.951786 613.310454 
L 648.901071 621.669331 
L 714.850357 612.207423 
L 780.799643 570.951175 
L 846.748929 533.934258 
L 912.698214 406.722818 
L 978.6475 451.68975 
" clip-path="url(#p4e308e54e8)" style="fill: none; stroke: #a23b72; stroke-width: 2; stroke-linecap: square"/>
    <defs>
     <path id="mf24c2ec195" d="M -3 3 
L 3 3 
L 3 -3 
L -3 -3 
z
" style="stroke: #a23b72; stroke-linejoin: miter"/>
    </defs>
    <g clip-path="url(#p4e308e54e8)">
     <use xlink:href="#mf24c2ec195" x="55.3575" y="659.170489" style="fill: #a23b72; stroke: #a23b72; stroke-linejoin: miter"/>
     <use xlink:href="#mf24c2ec195" x="121.306786" y="659.170434" style="fill: #a23b72; stroke: #a23b72; stroke-linejoin: miter"/>
     <use xlink:href="#mf24c2ec195" x="187.256071" y="659.161442" style="fill: #a23b72; stroke: #a23b72; stroke-linejoin: miter"/>
     <use xlink:href="#mf24c2ec195" x="253.205357" y="659.064416" style="fill: #a23b72; stroke: #a23b72; stroke-linejoin: miter"/>
     <use xlink:href="#mf24c2ec195" x="319.154643" y="651.910369" style="fill: #a23b72; stroke: #a23b72; stroke-linejoin: miter"/>
     <use xlink:href="#mf24c2ec195" x="385.103929" y="632.522572" style="fill: #a23b72; stroke: #a23b72; stroke-linejoin: miter"/>
     <use xlink:href="#mf24c2ec195" x="451.053214" y="618.486628" style="fill: #a23b72; stroke: #a23b72; stroke-linejoin: miter"/>
     <use xlink:href="#mf24c2ec195" x="517.0025" y="618.105629" style="fill: #a23b72; stroke: #a23b72; stroke-linejoin: miter"/>
     <use xlink:href="#mf24c2ec195" x="582.951786" y="613.310454" style="fill: #a23b72; stroke: #a23b72; stroke-linejoin: miter"/>
     <use xlink:href="#mf24c2ec195" x="648.901071" y="621.669331" style="fill: #a23b72; stroke: #a23b72; stroke-linejoin: miter"/>
     <use xlink:href="#mf24c2ec195" x="714.850357" y="612.207423" style="fill: #a23b72; stroke: #a23b72; stroke-linejoin: miter"/>
     <use xlink:href="#mf24c2ec195" x="780.799643" y="570.951175" style="fill: #a23b72; stroke: #a23b72; stroke-linejoin: miter"/>
     <use xlink:href="#mf24c2ec195" x="846.748929" y="533.934258" style="fill: #a23b72; stroke: #a23b72; stroke-linejoin: miter"/>
     <use xlink:href="#mf24c2ec195" x="912.698214" y="406.722818" style="fill: #a23b72; stroke: #a23b72; stroke-linejoin: miter"/>
     <use xlink:href="#mf24c2ec195" x="978.6475" y="451.68975" style="fill: #a23b72; stroke: #a23b72; stroke-linejoin: miter"/>
    </g>
   </g>
   <g id="patch_18">
    <path d="M 55.3575 671.792873 
L 55.3575 394.100435 
" style="fill: none; stroke: #000000; stroke-width: 0.8; stroke-linejoin: miter; stroke-linecap: square"/>
   </g>
   <g id="patch_19">
    <path d="M 978.6475 671.792873 
L 978.6475 394.100435 
" style="fill: none; stroke: #000000; stroke-width: 0.8; stroke-linejoin: miter; stroke-linecap: square"/>
   </g>
   <g id="patch_20">
    <path d="M 55.3575 671.792873 
L 978.6475 671.792873 
" style="fill: none; stroke: #000000; stroke-width: 0.8; stroke-linejoin: miter; stroke-linecap: square"/>
   </g>
   <g id="patch_21">
    <path d="M 55.3575 394.100435 
L 978.6475 394.100435 
" style="fill: none; stroke: #000000; stroke-width: 0.8; stroke-linejoin: miter; stroke-linecap: square"/>
   </g>
   <g id="patch_22">
    <path d="M 319.154643 623.63417 
Q 319.154643 636.773007 319.154643 648.79381 
" style="fill: none; stroke: #808080; stroke-linecap: round"/>
    <path d="M 320.954643 645.19381 
L 319.154643 648.79381 
L 317.354643 645.19381 
" style="fill: none; stroke: #808080; stroke-linecap: round"/>
   </g>
   <g id="text_40">
    <g id="patch_23">
     <path d="M 307.614252 621.136783 
L 330.695033 621.136783 
Q 335.195033 621.136783 335.195033 616.636783 
L 335.195033 597.84844 
Q 335.195033 593.34844 330.695033 593.34844 
L 307.614252 593.34844 
Q 303.114252 593.34844 303.114252 597.84844 
L 303.114252 616.636783 
Q 303.114252 621.136783 307.614252 621.136783 
z
" style="fill: #ffffff; opacity: 0.8; stroke: #808080; stroke-linejoin: miter"/>
    </g>
    <!-- 2016 -->
    <g transform="translate(307.702143 604.687033) scale(0.09 -0.09)">
     <use xlink:href="#DejaVuSans-32"/>
     <use xlink:href="#DejaVuSans-30" transform="translate(63.623047 0)"/>
     <use xlink:href="#DejaVuSans-31" transform="translate(127.246094 0)"/>
     <use xlink:href="#DejaVuSans-36" transform="translate(190.869141 0)"/>
    </g>
    <!-- 131K -->
    <g transform="translate(307.614252 614.765065) scale(0.09 -0.09)">
     <defs>
      <path id="DejaVuSans-4b" d="M 628 4666 
L 1259 4666 
L 1259 2694 
L 3353 4666 
L 4166 4666 
L 1850 2491 
L 4331 0 
L 3500 0 
L 1259 2247 
L 1259 0 
L 628 0 
L 628 4666 
z
" transform="scale(0.015625)"/>
     </defs>
     <use xlink:href="#DejaVuSans-31"/>
     <use xlink:href="#DejaVuSans-33" transform="translate(63.623047 0)"/>
     <use xlink:href="#DejaVuSans-31" transform="translate(127.246094 0)"/>
     <use xlink:href="#DejaVuSans-4b" transform="translate(190.869141 0)"/>
    </g>
   </g>
   <g id="patch_24">
    <path d="M 780.799643 529.276578 
Q 780.799643 549.112964 780.799643 567.831316 
" style="fill: none; stroke: #808080; stroke-linecap: round"/>
    <path d="M 782.599643 564.231316 
L 780.799643 567.831316 
L 778.999643 564.231316 
" style="fill: none; stroke: #808080; stroke-linecap: round"/>
   </g>
   <g id="text_41">
    <g id="patch_25">
     <path d="M 769.347143 526.775256 
L 792.252143 526.775256 
Q 796.752143 526.775256 796.752143 522.275256 
L 796.752143 503.486912 
Q 796.752143 498.986912 792.252143 498.986912 
L 769.347143 498.986912 
Q 764.847143 498.986912 764.847143 503.486912 
L 764.847143 522.275256 
Q 764.847143 526.775256 769.347143 526.775256 
z
" style="fill: #ffffff; opacity: 0.8; stroke: #808080; stroke-linejoin: miter"/>
    </g>
    <!-- 2023 -->
    <g transform="translate(769.347143 510.325506) scale(0.09 -0.09)">
     <use xlink:href="#DejaVuSans-32"/>
     <use xlink:href="#DejaVuSans-30" transform="translate(63.623047 0)"/>
     <use xlink:href="#DejaVuSans-32" transform="translate(127.246094 0)"/>
     <use xlink:href="#DejaVuSans-33" transform="translate(190.869141 0)"/>
    </g>
    <!-- 1.6M -->
    <g transform="translate(769.76058 520.403537) scale(0.09 -0.09)">
     <use xlink:href="#DejaVuSans-31"/>
     <use xlink:href="#DejaVuSans-2e" transform="translate(63.623047 0)"/>
     <use xlink:href="#DejaVuSans-36" transform="translate(95.410156 0)"/>
     <use xlink:href="#DejaVuSans-4d" transform="translate(159.033203 0)"/>
    </g>
   </g>
   <g id="patch_26">
    <path d="M 912.698214 379.40663 
Q 912.698214 392.066043 912.698214 403.607421 
" style="fill: none; stroke: #808080; stroke-linecap: round"/>
    <path d="M 914.498214 400.007421 
L 912.698214 403.607421 
L 910.898214 400.007421 
" style="fill: none; stroke: #808080; stroke-linecap: round"/>
   </g>
   <g id="text_42">
    <g id="patch_27">
     <path d="M 901.245714 376.906947 
L 924.150714 376.906947 
Q 928.650714 376.906947 928.650714 372.406947 
L 928.650714 343.540572 
Q 928.650714 339.040572 924.150714 339.040572 
L 901.245714 339.040572 
Q 896.745714 339.040572 896.745714 343.540572 
L 896.745714 372.406947 
Q 896.745714 376.906947 901.245714 376.906947 
z
" style="fill: #ffffff; opacity: 0.8; stroke: #808080; stroke-linejoin: miter"/>
    </g>
    <!-- 2025 -->
    <g transform="translate(901.245714 350.379166) scale(0.09 -0.09)">
     <use xlink:href="#DejaVuSans-32"/>
     <use xlink:href="#DejaVuSans-30" transform="translate(63.623047 0)"/>
     <use xlink:href="#DejaVuSans-32" transform="translate(127.246094 0)"/>
     <use xlink:href="#DejaVuSans-35" transform="translate(190.869141 0)"/>
    </g>
    <!-- 4.5M -->
    <g transform="translate(901.659152 360.457197) scale(0.09 -0.09)">
     <use xlink:href="#DejaVuSans-34"/>
     <use xlink:href="#DejaVuSans-2e" transform="translate(63.623047 0)"/>
     <use xlink:href="#DejaVuSans-35" transform="translate(95.410156 0)"/>
     <use xlink:href="#DejaVuSans-4d" transform="translate(159.033203 0)"/>
    </g>
    <!-- Peak -->
    <g transform="translate(902.015636 370.535228) scale(0.09 -0.09)">
     <defs>
      <path id="DejaVuSans-50" d="M 1259 4147 
L 1259 2394 
L 2053 2394 
Q 2494 2394 2734 2622 
Q 2975 2850 2975 3272 
Q 2975 3691 2734 3919 
Q 2494 4147 2053 4147 
L 1259 4147 
z
M 628 4666 
L 2053 4666 
Q 2838 4666 3239 4311 
Q 3641 3956 3641 3272 
Q 3641 2581 3239 2228 
Q 2838 1875 2053 1875 
L 1259 1875 
L 1259 0 
L 628 0 
L 628 4666 
z
" transform="scale(0.015625)"/>
      <path id="DejaVuSans-65" d="M 3597 1894 
L 3597 1613 
L 953 1613 
Q 991 1019 1311 708 
Q 1631 397 2203 397 
Q 2534 397 2845 478 
Q 3156 559 3463 722 
L 3463 178 
Q 3153 47 2828 -22 
Q 2503 -91 2169 -91 
Q 1331 -91 842 396 
Q 353 884 353 1716 
Q 353 2575 817 3079 
Q 1281 3584 2069 3584 
Q 2775 3584 3186 3129 
Q 3597 2675 3597 1894 
z
M 3022 2063 
Q 3016 2534 2758 2815 
Q 2500 3097 2075 3097 
Q 1594 3097 1305 2825 
Q 1016 2553 972 2059 
L 3022 2063 
z
" transform="scale(0.015625)"/>
      <path id="DejaVuSans-61" d="M 2194 1759 
Q 1497 1759 1228 1600 
Q 959 1441 959 1056 
Q 959 750 1161 570 
Q 1363 391 1709 391 
Q 2188 391 2477 730 
Q 2766 1069 2766 1631 
L 2766 1759 
L 2194 1759 
z
M 3341 1997 
L 3341 0 
L 2766 0 
L 2766 531 
Q 2569 213 2275 61 
Q 1981 -91 1556 -91 
Q 1019 -91 701 211 
Q 384 513 384 1019 
Q 384 1609 779 1909 
Q 1175 2209 1959 2209 
L 2766 2209 
L 2766 2266 
Q 2766 2663 2505 2880 
Q 2244 3097 1772 3097 
Q 1472 3097 1187 3025 
Q 903 2953 641 2809 
L 641 3341 
Q 956 3463 1253 3523 
Q 1550 3584 1831 3584 
Q 2591 3584 2966 3190 
Q 3341 2797 3341 1997 
z
" transform="scale(0.015625)"/>
      <path id="DejaVuSans-6b" d="M 581 4863 
L 1159 4863 
L 1159 1991 
L 2875 3500 
L 3609 3500 
L 1753 1863 
L 3688 0 
L 2938 0 
L 1159 1709 
L 1159 0 
L 581 0 
L 581 4863 
z
" transform="scale(0.015625)"/>
     </defs>
     <use xlink:href="#DejaVuSans-50"/>
     <use xlink:href="#DejaVuSans-65" transform="translate(56.677734 0)"/>
     <use xlink:href="#DejaVuSans-61" transform="translate(118.201172 0)"/>
     <use xlink:href="#DejaVuSans-6b" transform="translate(179.480469 0)"/>
    </g>
   </g>
   <g id="patch_28">
    <path d="M 978.6475 379.40678 
Q 978.6475 414.548992 978.6475 448.573169 
" style="fill: none; stroke: #808080; stroke-linecap: round"/>
    <path d="M 980.4475 444.973169 
L 978.6475 448.573169 
L 976.8475 444.973169 
" style="fill: none; stroke: #808080; stroke-linecap: round"/>
   </g>
   <g id="text_43">
    <g id="patch_29">
     <path d="M 967.022031 376.906947 
L 990.272969 376.906947 
Q 994.772969 376.906947 994.772969 372.406947 
L 994.772969 343.540572 
Q 994.772969 339.040572 990.272969 339.040572 
L 967.022031 339.040572 
Q 962.522031 339.040572 962.522031 343.540572 
L 962.522031 372.406947 
Q 962.522031 376.906947 967.022031 376.906947 
z
" style="fill: #ffffff; opacity: 0.8; stroke: #808080; stroke-linejoin: miter"/>
    </g>
    <!-- 2026 -->
    <g transform="translate(967.195 350.379166) scale(0.09 -0.09)">
     <use xlink:href="#DejaVuSans-32"/>
     <use xlink:href="#DejaVuSans-30" transform="translate(63.623047 0)"/>
     <use xlink:href="#DejaVuSans-32" transform="translate(127.246094 0)"/>
     <use xlink:href="#DejaVuSans-36" transform="translate(190.869141 0)"/>
    </g>
    <!-- 3.7M -->
    <g transform="translate(967.608437 360.457197) scale(0.09 -0.09)">
     <defs>
      <path id="DejaVuSans-37" d="M 525 4666 
L 3525 4666 
L 3525 4397 
L 1831 0 
L 1172 0 
L 2766 4134 
L 525 4134 
L 525 4666 
z
" transform="scale(0.015625)"/>
     </defs>
     <use xlink:href="#DejaVuSans-33"/>
     <use xlink:href="#DejaVuSans-2e" transform="translate(63.623047 0)"/>
     <use xlink:href="#DejaVuSans-37" transform="translate(95.410156 0)"/>
     <use xlink:href="#DejaVuSans-4d" transform="translate(159.033203 0)"/>
    </g>
    <!-- -18% -->
    <g transform="translate(967.022031 370.535228) scale(0.09 -0.09)">
     <defs>
      <path id="DejaVuSans-2d" d="M 313 2009 
L 1997 2009 
L 1997 1497 
L 313 1497 
L 313 2009 
z
" transform="scale(0.015625)"/>
     </defs>
     <use xlink:href="#DejaVuSans-2d"/>
     <use xlink:href="#DejaVuSans-31" transform="translate(36.083984 0)"/>
     <use xlink:href="#DejaVuSans-38" transform="translate(99.707031 0)"/>
     <use xlink:href="#DejaVuSans-25" transform="translate(163.330078 0)"/>
    </g>
   </g>
   <g id="text_44">
    <!-- Keyword Coverage Growth -->
    <g transform="translate(411.782656 374.100435) scale(0.14 -0.14)">
     <defs>
      <path id="DejaVuSans-Bold-67" d="M 2919 594 
Q 2688 288 2409 144 
Q 2131 0 1766 0 
Q 1125 0 706 504 
Q 288 1009 288 1791 
Q 288 2575 706 3076 
Q 1125 3578 1766 3578 
Q 2131 3578 2409 3434 
Q 2688 3291 2919 2981 
L 2919 3500 
L 4044 3500 
L 4044 353 
Q 4044 -491 3511 -936 
Q 2978 -1381 1966 -1381 
Q 1638 -1381 1331 -1331 
Q 1025 -1281 716 -1178 
L 716 -306 
Q 1009 -475 1290 -558 
Q 1572 -641 1856 -641 
Q 2406 -641 2662 -400 
Q 2919 -159 2919 353 
L 2919 594 
z
M 2181 2772 
Q 1834 2772 1640 2515 
Q 1447 2259 1447 1791 
Q 1447 1309 1634 1061 
Q 1822 813 2181 813 
Q 2531 813 2725 1069 
Q 2919 1325 2919 1791 
Q 2919 2259 2725 2515 
Q 2531 2772 2181 2772 
z
" transform="scale(0.015625)"/>
     </defs>
     <use xlink:href="#DejaVuSans-Bold-4b"/>
     <use xlink:href="#DejaVuSans-Bold-65" transform="translate(75.740234 0)"/>
     <use xlink:href="#DejaVuSans-Bold-79" transform="translate(143.5625 0)"/>
     <use xlink:href="#DejaVuSans-Bold-77" transform="translate(208.748047 0)"/>
     <use xlink:href="#DejaVuSans-Bold-6f" transform="translate(301.130859 0)"/>
     <use xlink:href="#DejaVuSans-Bold-72" transform="translate(369.832031 0)"/>
     <use xlink:href="#DejaVuSans-Bold-64" transform="translate(419.148438 0)"/>
     <use xlink:href="#DejaVuSans-Bold-20" transform="translate(490.730469 0)"/>
     <use xlink:href="#DejaVuSans-Bold-43" transform="translate(525.544922 0)"/>
     <use xlink:href="#DejaVuSans-Bold-6f" transform="translate(598.933594 0)"/>
     <use xlink:href="#DejaVuSans-Bold-76" transform="translate(667.634766 0)"/>
     <use xlink:href="#DejaVuSans-Bold-65" transform="translate(732.820312 0)"/>
     <use xlink:href="#DejaVuSans-Bold-72" transform="translate(800.642578 0)"/>
     <use xlink:href="#DejaVuSans-Bold-61" transform="translate(849.958984 0)"/>
     <use xlink:href="#DejaVuSans-Bold-67" transform="translate(917.439453 0)"/>
     <use xlink:href="#DejaVuSans-Bold-65" transform="translate(989.021484 0)"/>
     <use xlink:href="#DejaVuSans-Bold-20" transform="translate(1056.84375 0)"/>
     <use xlink:href="#DejaVuSans-Bold-47" transform="translate(1091.658203 0)"/>
     <use xlink:href="#DejaVuSans-Bold-72" transform="translate(1173.738281 0)"/>
     <use xlink:href="#DejaVuSans-Bold-6f" transform="translate(1223.054688 0)"/>
     <use xlink:href="#DejaVuSans-Bold-77" transform="translate(1291.755859 0)"/>
     <use xlink:href="#DejaVuSans-Bold-74" transform="translate(1384.138672 0)"/>
     <use xlink:href="#DejaVuSans-Bold-68" transform="translate(1431.941406 0)"/>
    </g>
   </g>
  </g>
 </g>
 <defs>
  <clipPath id="pd0bf417fda">
   <rect x="55.3575" y="38.343071" width="923.29" height="277.692438"/>
  </clipPath>
  <clipPath id="p4e308e54e8">
   <rect x="55.3575" y="394.100435" width="923.29" height="277.692438"/>
  </clipPath>
 </defs>
</svg>
